<svg width="64" height="63" viewBox="0 0 64 63" fill="none" xmlns="http://www.w3.org/2000/svg">
<path d="M32 0C14.3296 0 0 14.1057 0 31.5C0 48.8943 14.3296 63 32 63C49.6704 63 64 48.8943 64 31.5C64 14.1057 49.6704 0 32 0ZM50.2642 38.9573C50.1753 40.8828 49.8643 42.1974 49.4102 43.3481C48.4556 45.7778 46.5044 47.6984 44.0361 48.6381C42.8677 49.0851 41.5317 49.3908 39.5762 49.4788C37.6167 49.5667 36.9907 49.5879 32.0005 49.5879C27.0098 49.5879 26.3843 49.5667 24.4243 49.4788C22.4688 49.3908 21.1328 49.0851 19.9644 48.6381C18.7378 48.1839 17.6274 47.4721 16.7095 46.5516C15.7749 45.6485 15.0518 44.555 14.5903 43.3481C14.1362 42.1979 13.8252 40.8828 13.7363 38.9578C13.646 37.0285 13.625 36.4123 13.625 31.5C13.625 26.5877 13.646 25.9715 13.7358 24.0427C13.8247 22.1172 14.1353 20.8026 14.5894 19.6519C15.0508 18.445 15.7744 17.3515 16.7095 16.4484C17.627 15.5279 18.7378 14.8161 19.9639 14.3619C21.1328 13.9149 22.4683 13.6092 24.4243 13.5212C26.3838 13.4333 27.0098 13.4121 32 13.4121C36.9902 13.4121 37.6162 13.4333 39.5757 13.5217C41.5317 13.6092 42.8672 13.9149 44.0361 14.3614C45.2622 14.8156 46.373 15.5279 47.291 16.4484C48.2256 17.352 48.9492 18.445 49.4102 19.6519C49.8647 20.8026 50.1753 22.1172 50.2646 24.0427C50.354 25.9715 50.375 26.5877 50.375 31.5C50.375 36.4123 50.354 37.0285 50.2642 38.9573Z" fill="white"/>
</svg>
