<svg width="42" height="41" viewBox="0 0 42 41" fill="none" xmlns="http://www.w3.org/2000/svg">
<path d="M42 20.5C42 9.17695 32.5992 0 21 0C9.40078 0 0 9.17695 0 20.5C0 31.823 9.40078 41 21 41C21.123 41 21.2461 41 21.3691 40.992V25.0404H16.8574V19.9074H21.3691V16.1277C21.3691 11.7475 24.109 9.36113 28.1121 9.36113C30.0316 9.36113 31.6805 9.49727 32.1562 9.56133V14.1418H29.4C27.2262 14.1418 26.7996 15.1508 26.7996 16.6322V19.8994H32.0086L31.3277 25.0324H26.7996V40.2072C35.577 37.7488 42 29.8611 42 20.5Z" fill="white"/>
</svg>
