<svg width="34" height="15" viewBox="0 0 34 15" fill="none" xmlns="http://www.w3.org/2000/svg">
<path d="M33.0697 4.09734C33.0575 4.08121 33.0462 4.0644 33.0359 4.04699C32.7182 3.66394 32.1987 3.51383 31.7256 3.66837L18.9656 7.92285C18.6125 8.04318 18.242 8.10424 17.869 8.10354H11.7387C10.6492 8.10438 9.58425 8.42682 8.6773 9.03044L8.17799 9.36561C7.86185 9.57815 7.43328 9.49416 7.22074 9.17802C7.00821 8.86189 7.09219 8.43331 7.40833 8.22078L7.91247 7.88285C9.04575 7.12787 10.3769 6.72477 11.7387 6.72423H15.9311C16.3695 6.13837 16.4101 5.3456 16.0338 4.71802L15.9718 4.61458C15.4715 3.78658 14.5757 3.27925 13.6083 3.27595H10.0001C8.41455 3.27408 6.87655 2.73458 5.6373 1.74561C4.64331 0.952269 3.40975 0.519287 2.13799 0.517334H0.896606V14.3104H17.6552C18.4139 14.3107 19.158 14.1024 19.8063 13.7084L32.7311 5.83871C33.0212 5.66461 33.2237 5.37555 33.2883 5.04345C33.3529 4.71135 33.2734 4.36745 33.0697 4.09734Z" fill="white"/>
</svg>
