<svg width="40" height="32" viewBox="0 0 40 32" fill="none" xmlns="http://www.w3.org/2000/svg">
<path d="M33.8983 28.6103H40V27.2544C40 26.88 39.6965 26.5764 39.322 26.5764H34.6014C36.1627 26.5845 37.5344 25.5419 37.9444 24.0354C37.9952 23.8296 37.9478 23.6119 37.8161 23.4458C37.6844 23.2797 37.4832 23.184 37.2712 23.1866H36.6726C35.5802 23.1856 34.5516 23.7009 33.8983 24.5764V20.4747H34.6014C36.1627 20.4829 37.5344 19.4402 37.9444 17.9337C37.9952 17.7279 37.9478 17.5102 37.8161 17.3441C37.6844 17.178 37.4832 17.0823 37.2712 17.0849H36.6726C35.5802 17.0839 34.5516 17.5992 33.8983 18.4747V14.373H34.6014C36.1627 14.3812 37.5344 13.3386 37.9444 11.832C37.9952 11.6262 37.9478 11.4085 37.8161 11.2424C37.6844 11.0763 37.4832 10.9806 37.2712 10.9832H36.6726C35.5802 10.9822 34.5516 11.4975 33.8983 12.373V8.27135H34.6014C36.1627 8.27946 37.5344 7.23686 37.9444 5.73033C37.9952 5.52453 37.9478 5.30679 37.8161 5.1407C37.6844 4.97462 37.4832 4.87891 37.2712 4.88152H36.6726C35.5802 4.88055 34.5516 5.39585 33.8983 6.27135V1.49169C33.8983 1.11726 33.5948 0.813721 33.2203 0.813721C32.8459 0.813721 32.5424 1.11726 32.5424 1.49169V6.27135C31.8891 5.39585 30.8605 4.88055 29.7681 4.88152H29.1695C28.9575 4.87891 28.7563 4.97462 28.6246 5.1407C28.4928 5.30679 28.4455 5.52453 28.4963 5.73033C28.9063 7.23686 30.278 8.27946 31.8393 8.27135H32.5424V12.373C31.8891 11.4975 30.8605 10.9822 29.7681 10.9832H29.1695C28.9575 10.9806 28.7563 11.0763 28.6246 11.2424C28.4928 11.4085 28.4455 11.6262 28.4963 11.832C28.9063 13.3386 30.278 14.3812 31.8393 14.373H32.5424V18.4747C31.8891 17.5992 30.8605 17.0839 29.7681 17.0849H29.1695C28.9575 17.0823 28.7563 17.178 28.6246 17.3441C28.4928 17.5102 28.4455 17.7279 28.4963 17.9337C28.9063 19.4402 30.278 20.4829 31.8393 20.4747H32.5424V24.5764C31.8891 23.7009 30.8605 23.1856 29.7681 23.1866H29.1695C28.9575 23.184 28.7563 23.2797 28.6246 23.4458C28.4928 23.6119 28.4455 23.8296 28.4963 24.0354C28.9063 25.5419 30.278 26.5845 31.8393 26.5764H21.72C23.2813 26.5845 24.653 25.5419 25.0631 24.0354C25.1139 23.8296 25.0665 23.6119 24.9348 23.4458C24.803 23.2797 24.6018 23.184 24.3898 23.1866H23.7912C22.6988 23.1856 21.6702 23.7009 21.017 24.5764V20.4747H21.72C23.2813 20.4829 24.653 19.4402 25.0631 17.9337C25.1139 17.7279 25.0665 17.5102 24.9348 17.3441C24.803 17.178 24.6018 17.0823 24.3898 17.0849H23.7912C22.6988 17.0839 21.6702 17.5992 21.017 18.4747V14.373H21.72C23.2813 14.3812 24.653 13.3386 25.0631 11.832C25.1139 11.6262 25.0665 11.4085 24.9348 11.2424C24.803 11.0763 24.6018 10.9806 24.3898 10.9832H23.7912C22.6988 10.9822 21.6702 11.4975 21.017 12.373V9.62728C21.017 9.25285 20.7134 8.94931 20.339 8.94931C19.9646 8.94931 19.661 9.25285 19.661 9.62728V12.373C19.0077 11.4975 17.9792 10.9822 16.8868 10.9832H16.2881C16.0762 10.9806 15.875 11.0763 15.7432 11.2424C15.6115 11.4085 15.5641 11.6262 15.6149 11.832C16.025 13.3386 17.3967 14.3812 18.958 14.373H19.661V18.4747C19.0077 17.5992 17.9792 17.0839 16.8868 17.0849H16.2881C16.0762 17.0823 15.875 17.178 15.7432 17.3441C15.6115 17.5102 15.5641 17.7279 15.6149 17.9337C16.025 19.4402 17.3967 20.4829 18.958 20.4747H19.661V24.5764C19.0077 23.7009 17.9792 23.1856 16.8868 23.1866H16.2881C16.0762 23.184 15.875 23.2797 15.7432 23.4458C15.6115 23.6119 15.5641 23.8296 15.6149 24.0354C16.025 25.5419 17.3967 26.5845 18.958 26.5764H8.83866C10.4 26.5845 11.7717 25.5419 12.1817 24.0354C12.2325 23.8296 12.1851 23.6119 12.0534 23.4458C11.9217 23.2797 11.7205 23.184 11.5085 23.1866H10.9098C9.81747 23.1856 8.78889 23.7009 8.1356 24.5764V20.4747H8.83866C10.4 20.4829 11.7717 19.4402 12.1817 17.9337C12.2325 17.7279 12.1851 17.5102 12.0534 17.3441C11.9217 17.178 11.7205 17.0823 11.5085 17.0849H10.9098C9.81747 17.0839 8.78889 17.5992 8.1356 18.4747V13.6951C8.1356 13.3206 7.83207 13.0171 7.45764 13.0171C7.08321 13.0171 6.77967 13.3206 6.77967 13.6951V18.4747C6.12639 17.5992 5.09781 17.0839 4.00544 17.0849H3.40679C3.19482 17.0823 2.9936 17.178 2.86187 17.3441C2.73014 17.5102 2.68276 17.7279 2.73357 17.9337C3.14362 19.4402 4.51531 20.4829 6.07662 20.4747H6.77967V24.5764C6.12639 23.7009 5.09781 23.1856 4.00544 23.1866H3.40679C3.19482 23.184 2.9936 23.2797 2.86187 23.4458C2.73014 23.6119 2.68276 23.8296 2.73357 24.0354C3.14362 25.5419 4.51531 26.5845 6.07662 26.5764H1.35594C0.981514 26.5764 0.677979 26.88 0.677979 27.2544V28.6103H17.6271C18.0016 28.6103 18.3051 28.9139 18.3051 29.2883C18.3051 29.6627 18.0016 29.9663 17.6271 29.9663H0.677979V31.3222C0.677979 31.6966 0.981514 32.0002 1.35594 32.0002H39.322C39.6965 32.0002 40 31.6966 40 31.3222V29.9663H33.8983C33.5239 29.9663 33.2203 29.6627 33.2203 29.2883C33.2203 28.9139 33.5239 28.6103 33.8983 28.6103ZM31.1864 29.9663H20.339C19.9646 29.9663 19.661 29.6627 19.661 29.2883C19.661 28.9139 19.9646 28.6103 20.339 28.6103H31.1864C31.5609 28.6103 31.8644 28.9139 31.8644 29.2883C31.8644 29.6627 31.5609 29.9663 31.1864 29.9663Z" fill="white"/>
</svg>
