<svg width="25" height="32" viewBox="0 0 25 32" fill="none" xmlns="http://www.w3.org/2000/svg">
<path d="M5.00003 26.8966H8.60761C10.0599 26.901 11.4048 27.6625 12.1559 28.9055L12.218 29.009C12.7082 29.8291 12.8027 30.8265 12.4752 31.7241H12.869C13.0911 31.7243 13.3117 31.6879 13.5221 31.6166L24.1724 28.069C23.2797 26.6818 21.6361 25.973 20.0145 26.2759C20.0752 26.3841 20.1414 26.4883 20.1945 26.6C20.3583 26.9439 20.2122 27.3555 19.8683 27.5193C19.5244 27.6831 19.1128 27.537 18.949 27.1931C18.7985 26.8764 18.6084 26.58 18.3835 26.311C17.5974 25.3694 16.4335 24.8259 15.2069 24.8276C14.4784 24.8304 13.7639 25.0286 13.138 25.4014V20H15.8966C17.801 20 19.3449 18.4562 19.3449 16.5517C19.3449 16.1708 19.0361 15.8621 18.6552 15.8621H15.8966C14.8074 15.8643 13.7838 16.383 13.138 17.26V13.1034H15.2069C17.1114 13.1034 18.6552 11.5596 18.6552 9.65517C18.6552 9.27429 18.3464 8.96552 17.9655 8.96552H15.8966C14.8074 8.96771 13.7838 9.48641 13.138 10.3635V6.2069H14.5173C16.4217 6.2069 17.9655 4.66305 17.9655 2.75862C17.9655 2.37773 17.6568 2.06897 17.2759 2.06897H15.8966C14.8074 2.07116 13.7838 2.58986 13.138 3.4669V0.689655C13.138 0.308769 12.8292 0 12.4483 0C12.0674 0 11.7586 0.308769 11.7586 0.689655V3.4669C11.1128 2.58986 10.0892 2.07116 9.00003 2.06897H7.62072C7.23983 2.06897 6.93106 2.37773 6.93106 2.75862C6.93106 4.66305 8.47491 6.2069 10.3793 6.2069H11.7586V10.3635C11.1128 9.48641 10.0892 8.96771 9.00003 8.96552H6.93106C6.55018 8.96552 6.24141 9.27429 6.24141 9.65517C6.24141 11.5596 7.78525 13.1034 9.68968 13.1034H11.7586V17.26C11.1128 16.383 10.0892 15.8643 9.00003 15.8621H6.24141C5.86052 15.8621 5.55175 16.1708 5.55175 16.5517C5.55175 18.4562 7.0956 20 9.00003 20H11.7586V26.1931C11.5995 26.1808 11.45 26.1123 11.3366 26C11.0698 25.7282 11.0738 25.2917 11.3455 25.0248C11.3835 24.9883 11.4283 24.9559 11.4669 24.9235C10.0339 23.2119 7.49849 22.9529 5.74899 24.3393C5.98254 24.5567 6.0336 24.9071 5.87175 25.1821C5.67556 25.5084 5.25197 25.614 4.92554 25.4179C4.74071 25.3074 4.54774 25.211 4.3483 25.1297C3.24419 24.6922 2.00654 24.7423 0.941406 25.2676C1.13313 25.3924 1.32072 25.5235 1.50003 25.6669C2.49402 26.4609 3.72786 26.8944 5.00003 26.8966ZM13.8676 28.0434C14.0543 27.5306 14.4582 27.1267 14.9711 26.94C15.2053 26.8452 15.4727 26.8861 15.6679 27.0466C15.8631 27.2071 15.9548 27.4616 15.907 27.7097C15.8592 27.9579 15.6795 28.16 15.4386 28.2366C15.3114 28.2847 15.2109 28.3852 15.1628 28.5124C15.0853 28.7517 14.8838 28.9298 14.6369 28.9773C14.3899 29.0247 14.1367 28.9341 13.9761 28.7406C13.8154 28.5472 13.7728 28.2816 13.8649 28.0476L13.8676 28.0434Z" fill="white"/>
</svg>
