<svg width="38" height="50" viewBox="0 0 38 50" fill="none" xmlns="http://www.w3.org/2000/svg">
<path d="M19 0C8.6625 0 0.25 8.47083 0.25 18.8854C0.25 33.6833 17.2375 48.9625 17.9604 49.6042C18.2583 49.8687 18.6292 50 19 50C19.3708 50 19.7417 49.8688 20.0396 49.6063C20.7625 48.9625 37.75 33.6833 37.75 18.8854C37.75 8.47083 29.3375 0 19 0ZM19 29.1667C13.2562 29.1667 8.58333 24.4937 8.58333 18.75C8.58333 13.0062 13.2562 8.33333 19 8.33333C24.7437 8.33333 29.4167 13.0062 29.4167 18.75C29.4167 24.4937 24.7437 29.1667 19 29.1667Z" fill="white"/>
</svg>
