<svg width="48" height="50" viewBox="0 0 48 50" fill="none" xmlns="http://www.w3.org/2000/svg">
<path d="M42.0814 34.7998C39.0609 32.2164 35.9955 30.6515 33.0121 33.231L31.2307 34.79C29.9273 35.9217 27.5038 41.2096 18.1341 30.431C8.76628 19.6661 14.3409 17.99 15.6463 16.8681L17.4375 15.3071C20.4053 12.7217 19.2853 9.46711 17.1448 6.11687L15.8531 4.0876C13.7029 0.745161 11.3614 -1.44996 8.38579 1.1315L6.77799 2.53638C5.46286 3.49443 1.78677 6.60858 0.89506 12.5247C-0.178111 19.6232 3.20725 27.752 10.9634 36.671C18.7097 45.5939 26.2941 50.0759 33.4785 49.9978C39.4492 49.9335 43.0551 46.7295 44.1829 45.5647L45.7965 44.1578C48.7643 41.5783 46.9204 38.952 43.898 36.3627L42.0814 34.7998Z" fill="white"/>
</svg>
