<svg width="28" height="42" viewBox="0 0 28 42" fill="none" xmlns="http://www.w3.org/2000/svg">
<path d="M17.7087 26.9791C17.7087 31.9583 19.7503 37.2916 23.042 40.8749C21.0212 41.6249 18.8337 41.9999 16.5628 41.9999C7.37533 41.9999 0.166992 35.6666 0.166992 27.6041C0.166992 24.5624 1.14616 21.6666 3.00033 19.1874C3.04199 19.1458 3.06283 19.1041 3.10449 19.0833C6.95866 13.7083 7.00033 9.31242 7.00033 9.14575C7.00033 4.27075 11.292 0.333252 16.5628 0.333252C21.8545 0.333252 26.1253 4.27075 26.1253 9.10409C26.1253 9.41659 26.167 11.4374 27.3962 14.3749C21.3962 15.8541 17.7087 20.4791 17.7087 26.9791Z" fill="white"/>
</svg>
