<svg width="40" height="40" viewBox="0 0 40 40" fill="none" xmlns="http://www.w3.org/2000/svg">
<path d="M35 7.26562C35.4315 7.26562 35.7812 6.91586 35.7812 6.48438V2.34375C35.7812 1.05141 34.7298 0 33.4375 0H2.34375C1.05141 0 0 1.05141 0 2.34375V37.6562C0 38.9486 1.05141 40 2.34375 40H33.4375C34.7298 40 35.7812 38.9486 35.7812 37.6562V35.4688C35.7812 35.0373 35.4315 34.6875 35 34.6875C34.5685 34.6875 34.2188 35.0373 34.2188 35.4688V37.6562C34.2188 38.087 33.8683 38.4375 33.4375 38.4375H2.34375C1.91297 38.4375 1.5625 38.087 1.5625 37.6562V2.34375C1.5625 1.91297 1.91297 1.5625 2.34375 1.5625H33.4375C33.8683 1.5625 34.2188 1.91297 34.2188 2.34375V6.48438C34.2188 6.91586 34.5685 7.26562 35 7.26562Z" fill="black"/>
<path d="M31.2509 3.75H4.53125C4.09977 3.75 3.75 4.09977 3.75 4.53125V20.8594C3.75 21.2909 4.09977 21.6406 4.53125 21.6406C4.96273 21.6406 5.3125 21.2909 5.3125 20.8594V5.3125H30.4697V6.5625C30.4697 6.99398 30.8195 7.34375 31.2509 7.34375C31.6824 7.34375 32.0322 6.99398 32.0322 6.5625V4.53125C32.0322 4.09977 31.6824 3.75 31.2509 3.75Z" fill="black"/>
<path d="M5.08311 23.1977C4.9378 23.0523 4.73702 22.9688 4.53076 22.9688C4.3253 22.9688 4.12373 23.0523 3.97842 23.1977C3.83311 23.343 3.74951 23.5445 3.74951 23.75C3.74951 23.9555 3.83311 24.157 3.97842 24.3023C4.12373 24.4477 4.3253 24.5312 4.53076 24.5312C4.73702 24.5312 4.9378 24.4477 5.08311 24.3023C5.22921 24.157 5.31202 23.9555 5.31202 23.75C5.31202 23.5445 5.22921 23.343 5.08311 23.1977Z" fill="black"/>
<path d="M31.2509 32.9688C30.8195 32.9688 30.4697 33.3185 30.4697 33.75V34.6875H5.3125V26.7578C5.3125 26.3263 4.96273 25.9766 4.53125 25.9766C4.09977 25.9766 3.75 26.3263 3.75 26.7578V35.4688C3.75 35.9002 4.09977 36.25 4.53125 36.25H31.2509C31.6824 36.25 32.0322 35.9002 32.0322 35.4688V33.75C32.0322 33.3185 31.6824 32.9688 31.2509 32.9688Z" fill="black"/>
<path d="M24.2117 27.6044C23.9066 27.2992 23.412 27.2992 23.1068 27.6043L21.5628 29.1484L20.603 28.1886C19.997 27.5827 19.0111 27.5827 18.4051 28.1886L17.7806 28.8131C17.4755 29.1182 17.4755 29.6129 17.7806 29.918C18.0856 30.2231 18.5803 30.2231 18.8855 29.918L19.5041 29.2995L20.4639 30.2593C20.7668 30.5623 21.1648 30.7138 21.5628 30.7138C21.9607 30.7138 22.3587 30.5623 22.6617 30.2593L24.2117 28.7093C24.5168 28.4042 24.5168 27.9095 24.2117 27.6044Z" fill="black"/>
<path d="M39.6409 16.3892C39.9852 15.8521 40.088 15.1905 39.9228 14.5743C39.7577 13.958 39.338 13.4366 38.7712 13.1436C38.5254 13.0166 38.3749 12.7559 38.3878 12.4796C38.4174 11.8423 38.1757 11.218 37.7246 10.7669C37.2735 10.3158 36.6495 10.0737 36.0119 10.1037C35.7342 10.1171 35.4749 9.96601 35.3479 9.7203C35.0549 9.15359 34.5335 8.73382 33.9172 8.56866C33.3007 8.40343 32.6394 8.50632 32.1024 8.85062C31.8695 8.99999 31.5685 8.99991 31.3357 8.85062C30.7986 8.50624 30.1372 8.40351 29.5209 8.56866C28.9046 8.73382 28.3831 9.15359 28.0902 9.7203C27.9631 9.96609 27.7018 10.1162 27.4262 10.1037C26.7886 10.0739 26.1646 10.3158 25.7135 10.7669C25.2624 11.218 25.0206 11.8423 25.0503 12.4795C25.0631 12.7559 24.9126 13.0166 24.6669 13.1436C24.1002 13.4366 23.6804 13.958 23.5153 14.5743C23.4364 14.8683 23.4193 15.1726 23.4597 15.4687H9.82689C9.39541 15.4687 9.04564 15.8185 9.04564 16.25C9.04564 16.6815 9.39541 17.0312 9.82689 17.0312H23.8588C23.8421 17.0741 23.8226 17.1162 23.7971 17.1559C23.4528 17.693 23.35 18.3546 23.5152 18.9709C23.5378 19.0555 23.5657 19.1381 23.5978 19.2187H9.82666C9.39518 19.2187 9.04541 19.5685 9.04541 20C9.04541 20.4315 9.39518 20.7812 9.82666 20.7812H25.0036C25.0376 20.8705 25.0546 20.9669 25.05 21.0655C25.0204 21.7029 25.2621 22.3271 25.7133 22.7783C26.1644 23.2294 26.7884 23.4716 27.426 23.4415C27.702 23.428 27.9629 23.5791 28.0899 23.8248C28.1838 24.0064 28.3013 24.1726 28.4377 24.3205V31.6168C28.4377 31.9324 28.6276 32.217 28.919 32.3382C29.2103 32.4594 29.5461 32.3933 29.7699 32.1706L31.7189 30.2318L33.6679 32.1706C33.8173 32.3192 34.0164 32.398 34.2191 32.398C34.32 32.398 34.4219 32.3784 34.5188 32.3381C34.8103 32.2169 35.0002 31.9323 35.0002 31.6167V24.3204C35.1365 24.1726 35.2541 24.0063 35.3479 23.8248C35.4749 23.579 35.7359 23.4288 36.0119 23.4414C36.6499 23.4716 37.2735 23.2294 37.7246 22.7782C38.1757 22.327 38.4174 21.7028 38.3878 21.0655C38.3749 20.7891 38.5255 20.5285 38.7712 20.4015C39.3379 20.1085 39.7577 19.5871 39.9228 18.9708C40.088 18.3544 39.9852 17.693 39.6409 17.1558C39.4915 16.923 39.4915 16.6221 39.6409 16.3892ZM33.4377 29.7376L32.2699 28.5759C31.9651 28.2727 31.4727 28.2727 31.1679 28.5759L30.0002 29.7376V25.0508C30.4676 25.0728 30.936 24.9506 31.3356 24.6945C31.5685 24.5451 31.8695 24.5452 32.1023 24.6945C32.4713 24.9311 32.8989 25.0537 33.3304 25.0537C33.3662 25.0537 33.4019 25.0519 33.4377 25.0501V29.7376ZM38.4135 18.5665C38.3612 18.7619 38.2333 18.9207 38.0536 19.0136C37.2674 19.4201 36.7858 20.254 36.827 21.1382C36.8364 21.3403 36.7628 21.5304 36.6197 21.6735C36.4767 21.8166 36.2866 21.89 36.0845 21.8808C35.1998 21.8398 34.3664 22.3211 33.9599 23.1074C33.867 23.2872 33.7081 23.415 33.5127 23.4673C33.3174 23.5196 33.1158 23.4884 32.9456 23.3792C32.5729 23.1403 32.146 23.0209 31.7188 23.0209C31.2919 23.0209 30.8648 23.1404 30.4922 23.3792C30.3219 23.4884 30.1204 23.5196 29.925 23.4673C29.7295 23.415 29.5708 23.2871 29.4778 23.1074C29.0713 22.3212 28.2381 21.8394 27.3532 21.8808C27.1516 21.8901 26.961 21.8166 26.818 21.6735C26.6749 21.5304 26.6013 21.3403 26.6107 21.1381C26.6397 20.5141 26.4074 19.9158 25.9924 19.4744C25.9802 19.4611 25.9678 19.448 25.9546 19.4355C25.7898 19.2684 25.5988 19.1246 25.3841 19.0136C25.2044 18.9207 25.0766 18.7619 25.0242 18.5665C24.9719 18.371 25.0031 18.1695 25.1124 17.9993C25.5901 17.2541 25.5901 16.2912 25.1124 15.546C25.0032 15.3757 24.9719 15.1742 25.0242 14.9787C25.0766 14.7834 25.2045 14.6245 25.3842 14.5316C26.1704 14.1251 26.6519 13.2912 26.6108 12.407C26.6013 12.2049 26.675 12.0148 26.8181 11.8717C26.9611 11.7286 27.1516 11.6551 27.3533 11.6644C28.2381 11.7055 29.0715 11.2241 29.4779 10.4378C29.5708 10.258 29.7296 10.1302 29.9251 10.0779C30.1205 10.0256 30.322 10.0568 30.4922 10.166C31.2374 10.6438 32.2005 10.6438 32.9455 10.166C33.1158 10.0569 33.3172 10.0255 33.5127 10.0779C33.7081 10.1302 33.8669 10.2581 33.9599 10.4378C34.3664 11.2241 35.2002 11.7057 36.0845 11.6644C36.2867 11.6552 36.4767 11.7286 36.6197 11.8717C36.7628 12.0148 36.8364 12.2049 36.827 12.407C36.7859 13.2912 37.2673 14.1251 38.0537 14.5316C38.2334 14.6245 38.3612 14.7833 38.4135 14.9787C38.4659 15.1742 38.4346 15.3757 38.3254 15.5459C37.8477 16.2911 37.8477 17.2541 38.3254 17.9992C38.4346 18.1695 38.466 18.371 38.4135 18.5665Z" fill="black"/>
<path d="M35.434 14.6474C35.1289 14.3423 34.6342 14.3423 34.3291 14.6474L31.7361 17.2405L30.7038 16.2082C30.3988 15.9031 29.9041 15.9031 29.5989 16.2082C29.2938 16.5133 29.2938 17.008 29.5989 17.3131L31.1836 18.8978C31.3362 19.0504 31.5361 19.1267 31.736 19.1267C31.9359 19.1267 32.1359 19.0504 32.2884 18.8978L35.434 15.7523C35.7391 15.4472 35.7391 14.9525 35.434 14.6474Z" fill="black"/>
<path d="M9.53672 9.44766C9.39141 9.30234 9.18984 9.21875 8.98438 9.21875C8.77891 9.21875 8.57734 9.30234 8.43203 9.44766C8.28672 9.59297 8.20312 9.79453 8.20312 10C8.20312 10.2055 8.28672 10.407 8.43203 10.5523C8.57734 10.6977 8.77891 10.7812 8.98438 10.7812C9.18984 10.7812 9.39141 10.6977 9.53672 10.5523C9.68203 10.407 9.76562 10.2055 9.76562 10C9.76562 9.79453 9.68203 9.59297 9.53672 9.44766Z" fill="black"/>
<path d="M15.703 9.21875H11.9009C11.4694 9.21875 11.1196 9.56852 11.1196 10C11.1196 10.4315 11.4694 10.7812 11.9009 10.7812H15.703C16.1345 10.7812 16.4842 10.4315 16.4842 10C16.4842 9.56852 16.1345 9.21875 15.703 9.21875Z" fill="black"/>
<path d="M23.6595 22.9688H14.728C14.2965 22.9688 13.9468 23.3185 13.9468 23.75C13.9468 24.1815 14.2965 24.5312 14.728 24.5312H23.6594C24.0909 24.5312 24.4406 24.1815 24.4406 23.75C24.4406 23.3185 24.0909 22.9688 23.6595 22.9688Z" fill="black"/>
</svg>
