<svg width="52" height="53" viewBox="0 0 52 53" fill="none" xmlns="http://www.w3.org/2000/svg">
<g clip-path="url(#clip0)">
<path d="M42.2828 12.6368C41.8621 12.6368 41.521 12.9801 41.521 13.4036V47.8243C41.521 47.8534 41.4976 47.877 41.4686 47.877H14.6021C14.1814 47.877 13.8403 48.2203 13.8403 48.6438C13.8403 49.0673 14.1814 49.4106 14.6021 49.4106H41.4686C42.3376 49.4106 43.0445 48.699 43.0445 47.8243V13.4036C43.0445 12.9801 42.7034 12.6368 42.2828 12.6368Z" fill="white"/>
<path d="M44.725 3.62231H37.7132L35.1568 1.04895C34.7053 0.59451 34.1052 0.344238 33.4668 0.344238H7.27458C6.40561 0.344238 5.69873 1.0558 5.69873 1.93052V47.8243C5.69873 48.699 6.40561 49.4105 7.27458 49.4105H8.95524V51.1023C8.95524 51.9771 9.66211 52.6886 10.5311 52.6886H44.725C45.594 52.6886 46.3009 51.9771 46.3009 51.1023V5.2087C46.3009 4.33397 45.594 3.62231 44.725 3.62231ZM34.0888 2.14256L41.2578 9.35904H34.1412C34.1122 9.35904 34.0888 9.33542 34.0888 9.30629V2.14256ZM44.7774 51.1024C44.7774 51.1316 44.754 51.1552 44.725 51.1552H10.5311C10.5021 51.1552 10.4787 51.1316 10.4787 51.1024V49.4106H11.345C11.7657 49.4106 12.1067 49.0673 12.1067 48.6439C12.1067 48.2204 11.7657 47.8771 11.345 47.8771H7.27458C7.24563 47.8771 7.22217 47.8535 7.22217 47.8244V1.93052C7.22217 1.90138 7.24563 1.87777 7.27458 1.87777H32.5653V9.30629C32.5653 10.181 33.2722 10.8926 34.1412 10.8926H42.2826C42.7033 10.8926 43.0443 10.5493 43.0443 10.1258V9.98523C43.0443 9.34268 42.7957 8.73847 42.3443 8.28404L39.2367 5.15584H44.725C44.754 5.15584 44.7774 5.17946 44.7774 5.20859V51.1024Z" fill="white"/>
<path d="M20.8394 9.10374C20.5419 8.80429 20.0596 8.80429 19.7622 9.10374L15.453 13.4415C15.4325 13.462 15.3993 13.462 15.3789 13.4415L13.661 11.7123H14.9834C15.404 11.7123 15.7451 11.369 15.7451 10.9455C15.7451 10.522 15.404 10.1787 14.9834 10.1787H12.9734C12.7299 10.1787 12.5 10.2363 12.2938 10.3361L11.8838 9.92336C11.5863 9.62391 11.104 9.62391 10.8066 9.92336C10.5091 10.2228 10.5091 10.7083 10.8066 11.0077L11.4054 11.6104C11.4005 11.6613 11.3977 11.7128 11.3977 11.7649V16.6821C11.3977 17.5569 12.1046 18.2684 12.9735 18.2684H17.8584C18.7274 18.2684 19.4342 17.5569 19.4342 16.6821V11.6025L20.8394 10.188C21.1368 9.8886 21.1368 9.40308 20.8394 9.10374ZM17.9108 16.6822C17.9108 16.7114 17.8873 16.735 17.8584 16.735H12.9735C12.9446 16.735 12.9211 16.7114 12.9211 16.6822V13.136L14.3017 14.5257C14.6089 14.8349 15.0124 14.9896 15.416 14.9896C15.8195 14.9896 16.223 14.8349 16.5303 14.5257L17.9108 13.136V16.6822Z" fill="white"/>
<path d="M17.8587 20.8324H12.9738C12.1048 20.8324 11.3979 21.544 11.3979 22.4187V27.3359C11.3979 28.2106 12.1048 28.9222 12.9738 28.9222H17.8587C18.7276 28.9222 19.4345 28.2106 19.4345 27.3359V22.4187C19.4345 21.5441 18.7276 20.8324 17.8587 20.8324ZM17.9111 27.3359C17.9111 27.365 17.8876 27.3886 17.8587 27.3886H12.9738C12.9449 27.3886 12.9214 27.365 12.9214 27.3359V22.4187C12.9214 22.3895 12.9449 22.3659 12.9738 22.3659H17.8587C17.8876 22.3659 17.9111 22.3895 17.9111 22.4187V27.3359Z" fill="white"/>
<path d="M17.8587 31.4866H12.9738C12.1048 31.4866 11.3979 32.1981 11.3979 33.0729V37.9901C11.3979 38.8648 12.1048 39.5763 12.9738 39.5763H17.8587C18.7276 39.5763 19.4345 38.8647 19.4345 37.9901V33.0729C19.4345 32.1981 18.7276 31.4866 17.8587 31.4866ZM17.9111 37.9901C17.9111 38.0192 17.8876 38.0428 17.8587 38.0428H12.9738C12.9449 38.0428 12.9214 38.0191 12.9214 37.9901V33.0729C12.9214 33.0437 12.9449 33.0201 12.9738 33.0201H17.8587C17.8876 33.0201 17.9111 33.0437 17.9111 33.0729V37.9901Z" fill="white"/>
<path d="M30.0709 11.8176H22.7437C22.323 11.8176 21.9819 12.1609 21.9819 12.5844C21.9819 13.0079 22.3229 13.3512 22.7437 13.3512H30.0709C30.4916 13.3512 30.8326 13.0079 30.8326 12.5844C30.8326 12.1609 30.4916 11.8176 30.0709 11.8176Z" fill="white"/>
<path d="M36.584 15.0959H22.7437C22.323 15.0959 21.9819 15.4393 21.9819 15.8627C21.9819 16.2862 22.3229 16.6295 22.7437 16.6295H36.584C37.0047 16.6295 37.3457 16.2862 37.3457 15.8627C37.3457 15.4393 37.0048 15.0959 36.584 15.0959Z" fill="white"/>
<path d="M30.0709 22.4716H22.7437C22.323 22.4716 21.9819 22.8149 21.9819 23.2383C21.9819 23.6618 22.3229 24.0051 22.7437 24.0051H30.0709C30.4916 24.0051 30.8326 23.6618 30.8326 23.2383C30.8326 22.8149 30.4916 22.4716 30.0709 22.4716Z" fill="white"/>
<path d="M36.584 25.7498H22.7437C22.323 25.7498 21.9819 26.0931 21.9819 26.5165C21.9819 26.94 22.3229 27.2833 22.7437 27.2833H36.584C37.0047 27.2833 37.3457 26.94 37.3457 26.5165C37.3457 26.0931 37.0048 25.7498 36.584 25.7498Z" fill="white"/>
<path d="M30.0709 33.1256H22.7437C22.323 33.1256 21.9819 33.4689 21.9819 33.8924C21.9819 34.3158 22.3229 34.6591 22.7437 34.6591H30.0709C30.4916 34.6591 30.8326 34.3158 30.8326 33.8924C30.8326 33.4689 30.4916 33.1256 30.0709 33.1256Z" fill="white"/>
<path d="M36.584 36.4036H22.7437C22.323 36.4036 21.9819 36.7469 21.9819 37.1703C21.9819 37.5938 22.3229 37.9371 22.7437 37.9371H36.584C37.0047 37.9371 37.3457 37.5938 37.3457 37.1703C37.3457 36.7469 37.0048 36.4036 36.584 36.4036Z" fill="white"/>
</g>
<defs>
<clipPath id="clip0">
<rect width="52" height="52.3444" fill="white" transform="translate(0 0.344238)"/>
</clipPath>
</defs>
</svg>
