<svg width="39" height="39" viewBox="0 0 39 39" fill="none" xmlns="http://www.w3.org/2000/svg">
<path d="M39 19.5C39 8.7293 30.2707 0 19.5 0C8.7293 0 0 8.7293 0 19.5C0 30.2707 8.7293 39 19.5 39C19.6143 39 19.7285 39 19.8428 38.9924V23.8189H15.6533V18.9363H19.8428V15.341C19.8428 11.1744 22.3869 8.90449 26.1041 8.90449C27.8865 8.90449 29.4176 9.03398 29.8594 9.09492V13.452H27.3C25.2814 13.452 24.8854 14.4117 24.8854 15.8209V18.9287H29.7223L29.09 23.8113H24.8854V38.2459C33.0357 35.9074 39 28.4045 39 19.5Z" fill="white"/>
</svg>
