<svg width="37" height="40" viewBox="0 0 37 40" fill="none" xmlns="http://www.w3.org/2000/svg">
<path d="M34.537 13.9508H31.4427V4.71215C31.7493 4.56993 31.9453 4.28267 31.9453 3.95115C31.9453 3.55834 31.6708 3.22674 31.2621 3.1262L18.6734 0.028949C18.5165 -0.0095975 18.3508 -0.00967569 18.1941 0.0288708L5.60527 3.1262C5.19658 3.22674 4.92207 3.55826 4.92207 3.95115C4.92207 4.34405 5.19666 4.67556 5.60527 4.77611L8.36607 5.45533V13.9509H2.3303C1.04537 13.9509 0 14.9962 0 16.2812V17.2778C0 17.6018 0.262476 17.8642 0.586407 17.8642C0.910338 17.8642 1.17281 17.6018 1.17281 17.2778V16.2812C1.17281 15.6429 1.69206 15.1237 2.3303 15.1237H30.2699V15.9354H30.2618C29.3945 15.9354 28.6888 16.6409 28.6888 17.5083V19.1878C28.6888 19.7087 29.1126 20.1325 29.6334 20.1325H32.079C32.5998 20.1325 33.0236 19.7087 33.0236 19.1878V17.5083C33.0236 16.6409 32.318 15.9354 31.4507 15.9354H31.4426V15.1237H34.537C35.1752 15.1237 35.6944 15.6429 35.6944 16.2812V23.5375C35.6944 23.8911 35.456 24.2026 35.1147 24.2949L32.4891 25.0051V23.8804C32.4891 22.614 31.4588 21.5836 30.1924 21.5836H26.7043C25.4379 21.5836 24.4075 22.614 24.4075 23.8804V27.1913L19.8095 28.435C18.9093 28.6785 17.9579 28.6785 17.0578 28.435L12.5379 27.2123V23.8804C12.5379 22.614 11.5076 21.5836 10.2412 21.5836H6.75306C5.48666 21.5836 4.4563 22.614 4.4563 23.8804V25.0262L1.75258 24.2949C1.41129 24.2025 1.17281 23.8911 1.17281 23.5375V19.7768C1.17281 19.4529 0.910338 19.1904 0.586407 19.1904C0.262476 19.1904 0 19.4529 0 19.7768V23.5375C0 24.3803 0.543716 25.1261 1.33498 25.3918V36.6774C1.33498 38.1666 2.54649 39.3781 4.03565 39.3781H5.70918C5.9536 39.752 6.37526 40.0001 6.85432 40.0001H10.1398C10.6189 40.0001 11.0406 39.752 11.285 39.3781H25.6605C25.9049 39.752 26.3266 40.0001 26.8056 40.0001H30.0911C30.5703 40.0001 30.9919 39.752 31.2363 39.3781H32.8316C34.3208 39.3781 35.5323 38.1666 35.5323 36.6774V25.3918C36.3235 25.126 36.8673 24.3803 36.8673 23.5374V16.281C36.8673 14.9962 35.822 13.9508 34.537 13.9508ZM31.8508 17.5082V18.9596H29.8617V17.5082C29.8617 17.2876 30.0412 17.1081 30.2619 17.1081H31.4507C31.6713 17.1081 31.8508 17.2876 31.8508 17.5082ZM18.1933 7.87312C18.2721 7.89259 18.3531 7.90236 18.4339 7.90236C18.5145 7.90236 18.5951 7.89267 18.6732 7.87336L21.29 7.22956C21.6045 7.15215 21.7967 6.83448 21.7193 6.52001C21.642 6.20562 21.3243 6.01359 21.0098 6.09068L18.4337 6.72447L7.16152 3.95115L18.4337 1.17784L29.7059 3.95115L23.4566 5.48863C23.1421 5.56604 22.9499 5.88372 23.0273 6.19819C23.1046 6.51258 23.4224 6.70461 23.7368 6.62752L27.3286 5.74384V10.8442H9.53881V5.74384L18.1933 7.87312ZM9.53881 12.0171H27.3284V13.9508H9.53881V12.0171ZM28.5013 13.9508V5.45525L30.2699 5.02013V13.9508H28.5013ZM25.5803 23.8802C25.5803 23.2604 26.0845 22.7563 26.7043 22.7563H30.1924C30.8122 22.7563 31.3163 23.2604 31.3163 23.8802V28.2937C31.3163 28.4032 31.2272 28.4923 31.1177 28.4923H25.779C25.6695 28.4923 25.5803 28.4032 25.5803 28.2937V23.8802ZM5.62912 23.8802C5.62912 23.2604 6.13327 22.7563 6.75306 22.7563H10.2412C10.861 22.7563 11.3651 23.2604 11.3651 23.8802V28.2937C11.3651 28.4032 11.276 28.4923 11.1664 28.4923H10.9213H6.07283H5.82771C5.71825 28.4923 5.62912 28.4032 5.62912 28.2937V23.8802ZM2.50787 36.6773V25.7141L4.45638 26.2411V28.2937C4.45638 28.9319 4.89517 29.4681 5.4865 29.6204V38.2052H4.03573C3.19318 38.2052 2.50787 37.5198 2.50787 36.6773ZM10.1399 38.8272H6.8544C6.74681 38.8272 6.65924 38.7396 6.65924 38.6321V29.6651H10.335V38.6321C10.335 38.7396 10.2475 38.8272 10.1399 38.8272ZM30.0911 38.8272H26.8056C26.698 38.8272 26.6105 38.7396 26.6105 38.6321V33.2323C26.6105 32.9083 26.3481 32.6459 26.0241 32.6459C25.7002 32.6459 25.4377 32.9083 25.4377 33.2323V38.2052H11.5078V29.6204C12.0579 29.4787 12.4758 29.0048 12.5313 28.4254L16.7516 29.5671C17.3018 29.7159 17.8677 29.7902 18.4337 29.7902C18.9997 29.7902 19.5655 29.7159 20.1157 29.5671L24.4131 28.4046C24.4606 28.9934 24.881 29.4771 25.4377 29.6205V30.7333C25.4377 31.0572 25.7002 31.3197 26.0241 31.3197C26.3481 31.3197 26.6105 31.0572 26.6105 30.7333V29.6652H30.2863V38.6321C30.2863 38.7396 30.1987 38.8272 30.0911 38.8272ZM32.8317 38.2052H31.4591V29.6204C32.0504 29.4681 32.4892 28.9319 32.4892 28.2937V26.22L34.3595 25.7141V36.6773C34.3595 37.5198 33.6742 38.2052 32.8317 38.2052Z" fill="black"/>
<path d="M8.4972 27.4984C9.53069 27.4984 10.3714 26.6576 10.3714 25.6242C10.3714 24.5908 9.53069 23.75 8.4972 23.75C7.4638 23.75 6.62305 24.5908 6.62305 25.6242C6.62305 26.6577 7.4638 27.4984 8.4972 27.4984ZM8.4972 24.9229C8.88392 24.9229 9.19862 25.2375 9.19862 25.6243C9.19862 26.0111 8.884 26.3257 8.4972 26.3257C8.11041 26.3257 7.79586 26.0111 7.79586 25.6243C7.79586 25.2375 8.11049 24.9229 8.4972 24.9229Z" fill="black"/>
<path d="M28.4485 27.4984C29.4819 27.4984 30.3226 26.6576 30.3226 25.6242C30.3226 24.5908 29.4819 23.75 28.4485 23.75C27.415 23.75 26.5742 24.5908 26.5742 25.6242C26.5742 26.6577 27.415 27.4984 28.4485 27.4984ZM28.4485 24.9229C28.8352 24.9229 29.1498 25.2375 29.1498 25.6243C29.1498 26.0111 28.8352 26.3257 28.4485 26.3257C28.0617 26.3257 27.747 26.0111 27.747 25.6243C27.747 25.2375 28.0617 24.9229 28.4485 24.9229Z" fill="black"/>
<path d="M18.4337 24.2044C18.8655 24.2044 19.2156 23.8543 19.2156 23.4225C19.2156 22.9907 18.8655 22.6406 18.4337 22.6406C18.0019 22.6406 17.6519 22.9907 17.6519 23.4225C17.6519 23.8543 18.0019 24.2044 18.4337 24.2044Z" fill="black"/>
</svg>
