<svg width="20" height="21" viewBox="0 0 20 21" fill="none" xmlns="http://www.w3.org/2000/svg">
<path d="M19.4002 3.55756C19.207 3.04644 18.8987 2.5838 18.4982 2.20406C18.1092 1.81305 17.6356 1.51213 17.1117 1.32351C16.6868 1.16241 16.0485 0.970665 14.8728 0.918427C13.601 0.861809 13.2197 0.849609 9.99994 0.849609C6.77989 0.849609 6.39857 0.861496 5.12709 0.918114C3.95142 0.970665 3.31279 1.16241 2.88821 1.32351C2.3643 1.51213 1.89038 1.81305 1.50169 2.20406C1.10115 2.5838 0.792892 3.04613 0.59935 3.55756C0.434326 3.97234 0.2379 4.59576 0.184387 5.74345C0.126389 6.98466 0.113892 7.3569 0.113892 10.5003C0.113892 13.6433 0.126389 14.0156 0.184387 15.2571C0.2379 16.4048 0.434326 17.0279 0.59935 17.4427C0.792892 17.9541 1.10083 18.4164 1.50137 18.7962C1.89038 19.1872 2.36398 19.4881 2.88789 19.6767C3.31279 19.8381 3.95142 20.0299 5.12709 20.0821C6.39857 20.1387 6.77957 20.1506 9.99962 20.1506C13.22 20.1506 13.6013 20.1387 14.8725 20.0821C16.0481 20.0299 16.6868 19.8381 17.1117 19.6767C18.1633 19.2807 18.9945 18.4693 19.4002 17.4427C19.5652 17.0279 19.7617 16.4048 19.8155 15.2571C19.8735 14.0156 19.8857 13.6433 19.8857 10.5003C19.8857 7.3569 19.8735 6.98466 19.8155 5.74345C19.762 4.59576 19.5656 3.97234 19.4002 3.55756ZM9.99994 16.5446C6.57994 16.5446 3.80754 13.8385 3.80754 10.5C3.80754 7.16139 6.57994 4.45531 9.99994 4.45531C13.4196 4.45531 16.192 7.16139 16.192 10.5C16.192 13.8385 13.4196 16.5446 9.99994 16.5446ZM16.4368 5.62896C15.6377 5.62896 14.9897 4.99647 14.9897 4.21633C14.9897 3.4362 15.6377 2.8037 16.4368 2.8037C17.236 2.8037 17.8839 3.4362 17.8839 4.21633C17.8836 4.99647 17.236 5.62896 16.4368 5.62896Z" fill="white"/>
</svg>
