<svg width="56" height="57" viewBox="0 0 56 57" fill="none" xmlns="http://www.w3.org/2000/svg">
<path d="M54.3047 1.05334H1.69531C0.765625 1.05334 0 1.81303 0 2.75988V7.17487C0 8.11071 0.765625 8.88141 1.69531 8.88141H2.67969V18.3279C2.67969 18.7793 3.05156 19.1537 3.5 19.1537C3.94844 19.1537 4.32031 18.7793 4.32031 18.3279V8.88141H51.6797V41.0524C51.6797 41.4488 51.3625 41.7681 50.9688 41.7681C50.5312 41.7681 18.3312 41.7681 17.8172 41.7681C16.5266 41.7681 6.3 41.7681 5.03125 41.7681C4.6375 41.7681 4.32031 41.4488 4.32031 41.0524V22.1814C4.32031 21.73 3.94844 21.3557 3.5 21.3557C3.05156 21.3557 2.67969 21.73 2.67969 22.1814V41.0414C2.67969 42.3516 3.72969 43.4086 5.03125 43.4086H12.4359L10.0625 52.3156C9.64688 53.868 10.5656 55.4754 12.1078 55.8938C13.65 56.3122 15.2469 55.3874 15.6625 53.835L18.4406 43.4196H27.1797V46.8657C25.9 47.229 24.9594 48.4071 24.9594 49.8053C24.9594 51.4898 26.3156 52.8661 28 52.8661C29.6844 52.8661 31.0406 51.4898 31.0406 49.8053C31.0406 48.4071 30.1 47.229 28.8203 46.8657V43.4196H37.5594L40.3375 53.835C40.6766 55.1121 41.825 55.9929 43.1375 55.9929C44.7453 55.9929 46.0359 54.6827 46.0359 53.0753C46.0359 52.5798 45.9922 52.5358 45.2812 49.8494C45.1609 49.409 44.7125 49.1447 44.275 49.2658C43.8375 49.387 43.575 49.8384 43.6953 50.2788C44.4172 52.9872 44.3953 52.8551 44.3953 53.0753C44.3953 53.7799 43.8266 54.3414 43.1375 54.3414C42.5687 54.3414 42.0656 53.9561 41.9234 53.4056L39.2656 43.4086H41.8687L42.7109 46.5574C42.8312 46.9978 43.2797 47.262 43.7172 47.1409C44.1547 47.0198 44.4172 46.5684 44.2969 46.128L43.575 43.4086H50.9688C52.2703 43.4086 53.3203 42.3516 53.3203 41.0414V8.88141H54.3047C55.2344 8.88141 56 8.11071 56 7.17487V2.75988C56 1.81303 55.2344 1.05334 54.3047 1.05334ZM29.4 49.7943C29.4 50.565 28.7766 51.2036 28 51.2036C27.2234 51.2036 26.6 50.576 26.6 49.7943C26.6 49.0126 27.2234 48.385 28 48.385C28.7656 48.3961 29.4 49.0236 29.4 49.7943ZM14.0875 53.4056C13.9125 54.0772 13.2234 54.4846 12.5453 54.2974C11.8781 54.1212 11.4734 53.4166 11.6594 52.745L14.1422 43.4086H16.7453L14.0875 53.4056ZM54.3594 7.17487C54.3594 7.2079 54.3375 7.22992 54.3047 7.22992C53.6156 7.22992 2.37344 7.22992 1.69531 7.22992C1.6625 7.22992 1.64062 7.2079 1.64062 7.17487V2.75988C1.64062 2.72685 1.6625 2.70483 1.69531 2.70483H54.3047C54.3375 2.70483 54.3594 2.72685 54.3594 2.75988V7.17487Z" fill="white"/>
<path d="M22.7502 36.8906C22.6189 36.8906 22.4877 36.8576 22.3564 36.8026C21.8861 36.5824 21.6892 36.0319 21.908 35.5584L31.9705 13.6487C32.1892 13.1752 32.7361 12.9771 33.2064 13.1973C33.6767 13.4175 33.8736 13.968 33.6549 14.4414L23.5924 36.3512C23.4392 36.6925 23.1002 36.8906 22.7502 36.8906Z" fill="white"/>
<path d="M35.6562 32.2335C35.3499 32.2335 35.0437 32.0794 34.8687 31.7931C34.5953 31.3527 34.7265 30.7802 35.164 30.5049L44.3078 24.7357L35.5249 18.0637C35.1203 17.7554 35.0328 17.1609 35.339 16.7535C35.6453 16.3462 36.2359 16.2581 36.6406 16.5664L46.4843 24.0531C46.725 24.2403 46.8671 24.5375 46.8562 24.8348C46.8453 25.1321 46.6812 25.4183 46.4187 25.5835L36.1374 32.0793C35.9953 32.1894 35.8203 32.2335 35.6562 32.2335Z" fill="white"/>
<path d="M20.3439 32.2335C20.1798 32.2335 20.0048 32.1895 19.8517 32.0904L9.57046 25.5945C9.30796 25.4294 9.14389 25.1541 9.13296 24.8459C9.12202 24.5376 9.25327 24.2403 9.50483 24.0642L19.3486 16.5774C19.7533 16.2691 20.3439 16.3462 20.6501 16.7646C20.9564 17.1719 20.8798 17.7665 20.4642 18.0748L11.7033 24.7248L20.847 30.494C21.2845 30.7692 21.4158 31.3417 21.1423 31.7821C20.9564 32.0794 20.6611 32.2335 20.3439 32.2335Z" fill="white"/>
</svg>
