<svg width="40" height="40" viewBox="0 0 40 40" fill="none" xmlns="http://www.w3.org/2000/svg">
<g clip-path="url(#clip0)">
<path d="M40.0008 18.3248L40.0007 5.40062C40.0007 2.42266 37.578 0 34.6 0H21.676C21.455 0 21.2431 0.0878125 21.0868 0.244063L18.5605 2.77039C18.1286 2.73445 17.6927 2.70539 17.2535 2.68414C11.6952 2.41492 6.95215 3.38445 5.17027 5.15398C4.45645 5.86297 4.32996 6.57578 4.34941 7.04875C4.42004 8.75516 6.46176 10.29 9.99918 11.3316L1.57723 19.7537C0.560742 20.7702 0.000976562 22.1264 0.000976562 23.5725C0.000976562 25.0187 0.56082 26.3748 1.57723 27.3912L12.5193 38.3334H11.6676C11.2075 38.3334 10.8343 38.7064 10.8343 39.1667C10.8343 39.6269 11.2074 40.0001 11.6676 40.0001H28.3341C28.7943 40.0001 29.1675 39.627 29.1675 39.1667C29.1675 38.7065 28.7943 38.3334 28.3341 38.3334H20.3375L39.7567 18.9142C39.9131 18.7578 40.0008 18.5459 40.0008 18.3248ZM6.01473 6.97984C6.01168 6.90492 6.00223 6.67672 6.3448 6.33648C7.49387 5.19531 11.3086 4.09367 16.9896 4.34125L11.357 9.97391C7.49269 9.00172 6.0427 7.65555 6.01473 6.97984ZM19.0687 37.2451C18.3671 37.9468 17.4293 38.3333 16.4284 38.3333C15.4274 38.3333 14.4897 37.9469 13.7882 37.2451L2.75566 26.2126C2.05395 25.511 1.66746 24.5734 1.66746 23.5724C1.66746 22.5714 2.05395 21.6338 2.75566 20.9321L19.1846 4.50328C21.596 4.75547 23.8222 5.24055 25.595 5.91109C26.7707 6.35586 27.5636 6.81516 28.061 7.22844C27.4604 7.83164 27.0885 8.66273 27.0885 9.5793C27.0885 9.83781 27.119 10.0893 27.175 10.331C27.1788 10.3515 27.1838 10.3718 27.1892 10.392C27.1913 10.4007 27.1932 10.4095 27.1955 10.4181C27.1957 10.4188 27.1959 10.4195 27.1962 10.4202C27.5697 11.8523 28.8742 12.9125 30.4218 12.9125C32.2596 12.9125 33.755 11.4173 33.755 9.57922C33.755 7.74117 32.2597 6.24578 30.4218 6.24578C30.1261 6.24578 29.8396 6.28492 29.5665 6.3575C28.8607 5.61172 27.7242 4.93453 26.1846 4.35219C24.6153 3.75859 22.7258 3.30172 20.6786 3.00938L22.0211 1.66672H34.6C36.6589 1.66672 38.3339 3.3418 38.3339 5.4007L38.3341 17.9797L19.0687 37.2451ZM30.4157 8.16102C30.4123 8.0782 30.4038 7.99594 30.3914 7.91398C30.4016 7.91383 30.4115 7.91242 30.4218 7.91242C31.3407 7.91242 32.0882 8.66016 32.0882 9.57914C32.0882 10.498 31.3407 11.2457 30.4218 11.2457C29.8486 11.2457 29.3423 10.9548 29.0422 10.513C30.2043 9.68742 30.4421 8.79992 30.4157 8.16102Z" fill="black"/>
<path d="M35.7384 7.04141C35.2993 7.17899 35.0547 7.64657 35.1923 8.08571C35.3438 8.56946 35.4207 9.07188 35.4207 9.57915C35.4207 12.3361 33.1778 14.5789 30.421 14.5789C27.6639 14.5789 25.4211 12.3361 25.4211 9.57915C25.4211 9.11891 25.0481 8.74579 24.5878 8.74579C24.1275 8.74579 23.7544 9.11883 23.7544 9.57915C23.7544 13.255 26.7449 16.2456 30.4209 16.2456C34.0967 16.2456 37.0872 13.255 37.0872 9.57915C37.0872 8.90274 36.9848 8.23258 36.7826 7.58751C36.6451 7.14829 36.1775 6.90376 35.7384 7.04141Z" fill="black"/>
<path d="M34.6282 6.37202C34.8358 6.37202 35.0438 6.29483 35.2055 6.1396C35.5373 5.82077 35.5479 5.29327 35.2291 4.96132C35.0924 4.8189 34.9485 4.68179 34.8015 4.5539C34.4543 4.25163 33.928 4.28812 33.6257 4.63523C33.3235 4.98233 33.3599 5.50866 33.7071 5.81093C33.8169 5.90647 33.9245 6.00921 34.0272 6.11593C34.1908 6.28632 34.4092 6.37202 34.6282 6.37202Z" fill="black"/>
<path d="M17.2843 20.4167L20.9533 24.0857C21.2684 24.4008 21.7773 24.4027 22.09 24.09C22.4027 23.7773 22.4008 23.2684 22.0857 22.9533L18.4271 19.2947C20.607 17.7729 23.5004 18.7059 24.9167 20.1222C25.2318 20.4373 25.7407 20.4391 26.0534 20.1264C26.3661 19.8138 26.3642 19.3048 26.0492 18.9898C23.833 16.7736 19.9797 16.0565 17.2735 18.1411L16.6664 17.534C16.3513 17.2189 15.8424 17.217 15.5297 17.5297C15.217 17.8424 15.2189 18.3513 15.5339 18.6664L16.1347 19.2672C13.9056 22.034 14.5975 25.6569 16.9898 28.0492C17.3048 28.3643 17.8137 28.3661 18.1264 28.0534C18.4391 27.7407 18.4373 27.2318 18.1222 26.9168C16.9349 25.7295 15.3772 22.9543 17.2843 20.4167Z" fill="black"/>
</g>
<defs>
<clipPath id="clip0">
<rect width="40" height="40" fill="white"/>
</clipPath>
</defs>
</svg>
