<svg width="40" height="40" viewBox="0 0 40 40" fill="none" xmlns="http://www.w3.org/2000/svg">
<g clip-path="url(#clip0)">
<path d="M7.77835 10.0732C7.46585 9.77573 6.97123 9.78799 6.6738 10.1007L4.45307 12.4343C4.16603 12.7359 4.16603 13.2098 4.45307 13.5114L6.6738 15.845C6.96725 16.1533 7.46999 16.1659 7.77835 15.8725C8.09093 15.575 8.1032 15.0805 7.80577 14.7679L6.09755 12.9728L7.80577 11.1777C8.1032 10.8651 8.09093 10.3707 7.77835 10.0732Z" fill="black"/>
<path d="M15.4776 15.8724C15.7859 16.1658 16.2887 16.1533 16.5821 15.845L18.8029 13.5113C19.0899 13.2097 19.0899 12.7358 18.8029 12.4342L16.5821 10.1006C16.2846 9.788 15.7902 9.77581 15.4776 10.0732C15.165 10.3707 15.1527 10.8651 15.4501 11.1777L17.1584 12.9728L15.4501 14.7679C15.1528 15.0804 15.165 15.5749 15.4776 15.8724Z" fill="black"/>
<path d="M9.8267 15.9717C10.1894 16.1951 10.6784 16.0786 10.9016 15.7162L13.7766 11.0489C14.0029 10.6815 13.8886 10.2003 13.5211 9.97392C13.1537 9.74767 12.6725 9.86197 12.4462 10.2294L9.57123 14.8967C9.34497 15.2641 9.45935 15.7454 9.8267 15.9717Z" fill="black"/>
<path d="M18.3833 18.0485H5.01905C4.58756 18.0485 4.23779 18.3984 4.23779 18.8298C4.23779 19.2612 4.58756 19.611 5.01905 19.611H18.3833C18.8148 19.611 19.1646 19.2612 19.1646 18.8298C19.1646 18.3984 18.8148 18.0485 18.3833 18.0485Z" fill="black"/>
<path d="M5.01905 22.013C4.58756 22.013 4.23779 22.3629 4.23779 22.7943C4.23779 23.2257 4.58756 23.5755 5.01905 23.5755H14.5776C15.0091 23.5755 15.3589 23.2257 15.3589 22.7943C15.3589 22.3629 15.0091 22.013 14.5776 22.013H5.01905Z" fill="black"/>
<path d="M17.9878 22.7943C17.9878 23.2257 18.3376 23.5755 18.7691 23.5755H25.443C25.8745 23.5755 26.2243 23.2257 26.2243 22.7943C26.2243 22.3629 25.8745 22.013 25.443 22.013H18.7691C18.3376 22.013 17.9878 22.3628 17.9878 22.7943Z" fill="black"/>
<path d="M13.0329 7.4787C13.3086 8.14088 14.2921 8.09471 14.5017 7.40682C14.7017 6.75002 13.9787 6.16697 13.3787 6.49502C13.0343 6.68338 12.8817 7.11596 13.0329 7.4787Z" fill="black"/>
<path d="M21.2328 19.2633C21.4696 19.6166 21.9614 19.7155 22.3163 19.4798C22.6714 19.2439 22.7665 18.7498 22.532 18.3962C22.2963 18.0408 21.8022 17.9462 21.4484 18.1805C21.0937 18.4154 20.9973 18.9103 21.2328 19.2633Z" fill="black"/>
<path d="M39.0743 11.6175L38.414 11.2361C38.2013 11.1131 38.2007 10.725 38.4139 10.6022L39.0743 10.2207C39.9586 9.70998 40.2629 8.5752 39.7525 7.69112L38.5203 5.55703C38.0168 4.68514 36.8639 4.37529 35.991 4.87936L35.3297 5.26093C35.1097 5.38819 34.7812 5.20264 34.7812 4.94436V4.18075C34.7812 3.15964 33.9504 2.32885 32.9293 2.32885H30.4653C29.4442 2.32885 28.6134 3.15964 28.6134 4.18075V4.94436C28.6134 5.20288 28.2849 5.38796 28.0647 5.26077L27.4039 4.87951C26.5307 4.37505 25.3777 4.68529 24.8743 5.55703L24.3883 6.3986H17.2521C16.8206 6.3986 16.4708 6.74845 16.4708 7.17986C16.4708 7.61128 16.8206 7.96113 17.2521 7.96113H23.5133C23.195 8.79583 23.5433 9.77194 24.3201 10.2209L24.9806 10.6023C25.1932 10.7248 25.1931 11.1131 24.9808 11.2359L24.3186 11.6177C23.435 12.1292 23.1315 13.2639 23.6419 14.1471L24.8738 16.28C25.3772 17.1525 26.5306 17.4631 27.4041 16.9586L28.0649 16.5766C28.2847 16.4497 28.6134 16.6351 28.6134 16.8932V17.6568C28.6134 18.6602 29.4422 19.4943 30.4381 19.5086L30.9867 19.5423V26H1.56252V8.69426C1.56252 8.26941 1.83729 7.96113 2.21582 7.96113H10.2366C10.6681 7.96113 11.0179 7.61128 11.0179 7.17986C11.0179 6.74845 10.6681 6.3986 10.2366 6.3986H2.21582C0.973296 6.3986 0 7.40705 0 8.69426V29.4022V29.4024C0 30.5602 1.01463 31.5384 2.21566 31.5384H12.6657L12.285 34.8065C12.2004 35.5479 11.5745 36.1064 10.8285 36.1064C10.828 36.1064 10.8274 36.1064 10.8268 36.1064C10.8167 36.1055 10.8055 36.1066 10.7947 36.107C10.7883 36.1073 9.90156 36.1087 9.90156 36.1087C9.47007 36.1087 9.1203 36.4585 9.1203 36.8899C9.1203 37.3214 9.47007 37.6712 9.90156 37.6712H23.4452C23.8766 37.6712 24.2265 37.3214 24.2265 36.8899C24.2265 36.4585 23.8766 36.1087 23.4452 36.1087C23.4452 36.1087 22.5585 36.1073 22.552 36.107C22.5417 36.1066 22.5313 36.1064 22.521 36.1064C22.52 36.1063 22.5193 36.1063 22.5182 36.1064C21.7724 36.1063 21.1463 35.5479 21.0618 34.8065C21.0617 34.8059 21.0617 34.8052 21.0616 34.8047L20.681 31.5384H30.3333C31.5347 31.5384 32.5497 30.5602 32.5497 29.4024L32.5493 19.5087H32.9291C33.9502 19.5087 34.781 18.6779 34.781 17.6568V16.8932C34.781 16.6354 35.1093 16.4495 35.3293 16.5765L35.9906 16.9588C36.8639 17.4629 38.0169 17.1524 38.5201 16.2806L39.7524 14.147C40.2628 13.2629 39.9586 12.1281 39.0743 11.6175ZM30.9868 27.5625V29.4022C30.9868 29.673 30.7074 29.9758 30.3335 29.9758H2.21589C1.84198 29.9758 1.5626 29.673 1.5626 29.4022V27.5625H30.9868ZM19.5095 34.9843C19.5559 35.3904 19.6811 35.7702 19.8686 36.1087H13.4786C13.666 35.7704 13.791 35.3911 13.8372 34.9855L14.2388 31.5384H19.108L19.5095 34.9843ZM38.3993 13.3657L37.1671 15.4993C37.0879 15.6362 36.9096 15.6851 36.7723 15.6057L36.1109 15.2234C34.863 14.5029 33.2186 15.4516 33.2186 16.8931V17.6567C33.2186 17.8163 33.0887 17.9461 32.9292 17.9461H30.4653C30.3074 17.9461 30.1762 17.8143 30.1762 17.6566V16.8934C30.1762 15.4515 28.532 14.5025 27.2832 15.2233L26.6221 15.6054C26.4862 15.6838 26.3063 15.6355 26.2274 15.4991L24.9952 13.3656C24.9155 13.2275 24.9631 13.0502 25.1008 12.9706L25.7624 12.5889C26.9982 11.8746 27.0005 9.96264 25.7622 9.24904L25.1017 8.86747C24.9694 8.78489 24.9148 8.61145 24.9953 8.47223L26.2274 6.33821C26.3069 6.20071 26.4854 6.15328 26.6228 6.23258L27.2838 6.61392C28.5318 7.33471 30.1761 6.38594 30.1761 4.9442V4.1806C30.1761 4.02106 30.3059 3.89122 30.4655 3.89122H32.9293C33.0888 3.89122 33.2186 4.02106 33.2186 4.1806V4.9442C33.2186 6.38571 34.8623 7.33471 36.1109 6.614L36.7722 6.23243C36.9093 6.15297 37.088 6.20094 37.1672 6.33813L38.3994 8.47223C38.4791 8.61028 38.4313 8.78747 38.2929 8.86747L37.6332 9.24865C36.3974 9.96069 36.3958 11.8742 37.6325 12.5889L38.293 12.9705C38.4311 13.0505 38.4789 13.2278 38.3993 13.3657Z" fill="black"/>
<path d="M31.6969 7.66483C29.9026 7.66483 28.4429 9.12462 28.4429 10.9188C28.4429 12.713 29.9027 14.1728 31.6969 14.1728C33.4915 14.1728 34.9515 12.713 34.9515 10.9188C34.9515 9.1447 33.4712 7.66468 31.6969 7.66483ZM31.6969 12.6103C30.7642 12.6103 30.0054 11.8515 30.0054 10.9189C30.0054 9.9862 30.7642 9.22744 31.6969 9.22744C32.617 9.24291 33.389 9.98761 33.389 10.9189C33.389 11.8515 32.6299 12.6103 31.6969 12.6103Z" fill="black"/>
</g>
<defs>
<clipPath id="clip0">
<rect width="40" height="40" fill="white"/>
</clipPath>
</defs>
</svg>
