<svg width="292" height="292" viewBox="0 0 292 292" fill="none" xmlns="http://www.w3.org/2000/svg">
<g clip-path="url(#clip0)">
<path d="M51.3571 225.815C47.2691 225.815 43.3393 226.835 39.8528 228.751C21.487 205.208 11.4062 175.961 11.4062 146C11.4062 71.7836 71.7836 11.4062 146 11.4062C155.023 11.4062 164.041 12.304 172.805 14.0751C175.888 14.6989 178.9 12.7028 179.524 9.61511C180.147 6.5274 178.151 3.5199 175.064 2.89389C165.558 0.973541 155.78 0 146 0C107.003 0 70.3378 15.1868 42.7623 42.7623C15.1868 70.3378 0 107.003 0 146C0 178.804 11.1389 210.817 31.4184 236.481C28.8075 240.382 27.404 244.967 27.404 249.768C27.404 256.166 29.8969 262.181 34.4215 266.703C38.9439 271.228 44.9589 273.721 51.3571 273.721C57.7553 273.721 63.7703 271.228 68.2949 266.703C72.8195 262.181 75.3102 256.164 75.3102 249.766C75.3102 243.37 72.8195 237.352 68.2949 232.83C63.7703 228.305 57.7553 225.815 51.3571 225.815ZM60.2281 258.639C57.86 261.009 54.7077 262.315 51.3571 262.315C48.0065 262.315 44.8564 261.009 42.4861 258.639C40.1157 256.269 38.8102 253.118 38.8102 249.768C38.8102 246.415 40.1157 243.265 42.4861 240.895C44.8542 238.524 48.0065 237.221 51.3571 237.221C54.7077 237.221 57.8578 238.526 60.2281 240.895C62.5985 243.265 63.904 246.415 63.904 249.768C63.904 253.118 62.5985 256.269 60.2281 258.639Z" fill="#E9E9E9"/>
<path d="M260.577 55.5119C266.777 46.2109 265.781 33.4947 257.581 25.2943C253.056 20.7719 247.041 18.279 240.643 18.279C234.245 18.279 228.23 20.7719 223.705 25.2943C219.18 29.8189 216.69 35.8339 216.69 42.2321C216.69 48.6303 219.18 54.6453 223.705 59.1699C228.23 63.6945 234.245 66.1852 240.643 66.1852C244.731 66.1852 248.661 65.1649 252.147 63.249C270.513 86.7944 280.594 116.039 280.594 146C280.594 220.216 220.216 280.594 146 280.594C137.066 280.594 128.133 279.714 119.451 277.976C116.364 277.359 113.358 279.362 112.739 282.449C112.122 285.539 114.125 288.542 117.212 289.162C126.629 291.044 136.316 292 146 292C184.997 292 221.662 276.813 249.238 249.238C276.813 221.662 292 184.997 292 146C292 113.194 280.859 81.1782 260.577 55.5119ZM231.772 51.1053C229.401 48.735 228.096 45.5849 228.096 42.2321C228.096 38.8815 229.401 35.7314 231.772 33.3611C234.14 30.9907 237.292 29.6852 240.643 29.6852C243.993 29.6852 247.146 30.9907 249.516 33.3611C254.406 38.2533 254.406 46.2131 249.516 51.1053C247.146 53.4735 243.993 54.779 240.643 54.779C237.29 54.779 234.14 53.4735 231.772 51.1053Z" fill="#E9E9E9"/>
<path d="M122.466 244.094C122.466 247.244 125.021 249.797 128.169 249.797H163.829C166.979 249.797 169.532 247.244 169.532 244.094V233.037C177.031 231.019 184.2 228.047 190.937 224.166L198.743 231.972C199.812 233.042 201.263 233.643 202.777 233.643C204.288 233.643 205.74 233.042 206.81 231.97L232.015 206.747C234.24 204.519 234.24 200.908 232.015 198.683L224.218 190.885C228.098 184.149 231.07 176.98 233.089 169.481H244.103C247.253 169.481 249.806 166.928 249.806 163.778V128.118C249.806 124.967 247.253 122.414 244.103 122.414H233.086C231.068 114.918 228.098 107.749 224.218 101.012L231.973 93.2572C233.042 92.1879 233.643 90.7354 233.643 89.2227C233.641 87.7101 233.04 86.2575 231.97 85.1882L206.745 59.9831C204.52 57.7575 200.908 57.7575 198.681 59.9853L190.937 67.7313C184.2 63.8505 177.031 60.8786 169.532 58.8603V47.9062C169.532 44.7562 166.979 42.2031 163.829 42.2031H128.169C125.021 42.2031 122.466 44.7562 122.466 47.9062V58.8625C114.969 60.8786 107.8 63.8505 101.064 67.7313L93.3175 59.9853C91.092 57.7597 87.4807 57.7575 85.2529 59.9831L60.03 85.1904C58.9584 86.2598 58.3569 87.7101 58.3569 89.2227C58.3569 90.7354 58.9584 92.1879 60.0277 93.2572L67.7827 101.012C63.9019 107.749 60.93 114.916 58.9116 122.414H47.9175C44.7674 122.414 42.2144 124.967 42.2144 128.115L42.1943 163.775C42.1921 165.288 42.7936 166.741 43.863 167.81C44.9323 168.879 46.3826 169.481 47.8975 169.481H58.9116C60.93 176.98 63.9019 184.149 67.7827 190.885L59.9854 198.683C57.7599 200.908 57.7576 204.519 59.9854 206.747L85.1906 231.97C86.2599 233.039 87.7102 233.643 89.2228 233.643H89.2251C90.7377 233.643 92.188 233.042 93.2574 231.972L101.061 224.166C107.8 228.047 114.969 231.019 122.466 233.037V244.094ZM103.298 212.172C101.041 210.713 98.0716 211.029 96.1691 212.929L89.2251 219.873L72.0823 202.717L79.0196 195.778C80.9199 193.877 81.2362 190.908 79.777 188.651C74.6064 180.649 70.9706 171.878 68.9745 162.579C68.4087 159.953 66.0873 158.075 63.3984 158.075H53.6028L53.6162 133.821H63.3984C66.0873 133.821 68.4087 131.945 68.9745 129.316C70.9706 120.02 74.6064 111.249 79.777 103.247C81.2362 100.99 80.9199 98.0202 79.0196 96.1199L72.1268 89.2249L89.283 72.0822L96.1691 78.9705C98.0716 80.8708 101.039 81.1849 103.298 79.7279C111.298 74.5572 120.069 70.9215 129.368 68.9254C131.994 68.3595 133.872 66.0359 133.872 63.3492V53.6094H158.126V63.347C158.126 66.0359 160.002 68.3595 162.631 68.9232C171.927 70.9215 180.7 74.555 188.7 79.7257C190.957 81.1849 193.926 80.8708 195.827 78.9682L202.715 72.0822L219.871 89.2249L212.978 96.1177C211.076 98.0202 210.762 100.99 212.221 103.247C217.392 111.249 221.025 120.02 223.023 129.316C223.587 131.945 225.911 133.821 228.6 133.821H238.4V158.075H228.6C225.911 158.075 223.589 159.953 223.023 162.579C221.027 171.876 217.392 180.649 212.221 188.649C210.762 190.908 211.078 193.877 212.978 195.778L219.916 202.715L202.773 219.871L195.829 212.929C193.926 211.027 190.957 210.713 188.7 212.172C180.698 217.343 171.927 220.976 162.631 222.974C160.002 223.54 158.126 225.862 158.126 228.551V238.391H133.872V228.551C133.872 225.864 131.994 223.54 129.368 222.974C120.071 220.978 111.3 217.343 103.298 212.172Z" fill="#E9E9E9"/>
<path d="M193.124 146C193.124 120.015 171.985 98.8757 146 98.8757C120.015 98.8757 98.8755 120.015 98.8755 146C98.8755 171.985 120.015 193.124 146 193.124C171.985 193.124 193.124 171.985 193.124 146ZM110.282 146C110.282 126.304 126.304 110.282 146 110.282C165.696 110.282 181.718 126.306 181.718 146C181.718 165.694 165.696 181.718 146 181.718C126.304 181.718 110.282 165.696 110.282 146Z" fill="#E9E9E9"/>
<path d="M198.513 21.5694C200.015 21.5694 201.485 20.959 202.545 19.8986C203.606 18.8315 204.216 17.3611 204.216 15.8596C204.216 14.367 203.608 12.8944 202.545 11.8273C201.485 10.7669 200.015 10.1565 198.513 10.1565C197.007 10.1565 195.544 10.7669 194.483 11.8273C193.42 12.8944 192.81 14.3603 192.81 15.8596C192.81 17.3656 193.42 18.8315 194.483 19.8986C195.544 20.959 197.007 21.5694 198.513 21.5694Z" fill="#E9E9E9"/>
<path d="M93.7363 270.533C92.237 270.533 90.7645 271.143 89.704 272.204C88.6436 273.264 88.0332 274.737 88.0332 276.236C88.0332 277.742 88.6436 279.208 89.704 280.268C90.7645 281.329 92.237 281.939 93.7363 281.939C95.2356 281.939 96.7082 281.329 97.7686 280.268C98.829 279.208 99.4395 277.736 99.4395 276.236C99.4395 274.737 98.829 273.264 97.7686 272.204C96.7082 271.143 95.2356 270.533 93.7363 270.533Z" fill="#E9E9E9"/>
</g>
<defs>
<clipPath id="clip0">
<rect width="292" height="292" fill="white"/>
</clipPath>
</defs>
</svg>
