<svg width="31" height="31" viewBox="0 0 31 31" fill="none" xmlns="http://www.w3.org/2000/svg">
<path d="M31 15.5C31 6.93867 24.0613 0 15.5 0C6.93867 0 0 6.93867 0 15.5C0 24.0613 6.93867 31 15.5 31C15.5908 31 15.6816 31 15.7725 30.9939V18.933H12.4424V15.052H15.7725V12.1941C15.7725 8.88223 17.7947 7.07793 20.7494 7.07793C22.1662 7.07793 23.3832 7.18086 23.7344 7.2293V10.6926H21.7C20.0955 10.6926 19.7807 11.4555 19.7807 12.5756V15.0459H23.6254L23.1229 18.927H19.7807V30.4006C26.2592 28.5418 31 22.5779 31 15.5Z" fill="#1D84C4"/>
</svg>
