<svg width="15" height="15" viewBox="0 0 15 15" fill="none" xmlns="http://www.w3.org/2000/svg">
<path d="M14.4383 2.25085C14.2956 1.86439 14.0681 1.51459 13.7725 1.22746C13.4854 0.931824 13.1358 0.7043 12.7491 0.561684C12.4355 0.43988 11.9644 0.294899 11.0966 0.255402C10.1579 0.212593 9.87643 0.203369 7.49997 0.203369C5.12327 0.203369 4.84182 0.212357 3.90334 0.255165C3.03558 0.294899 2.56422 0.43988 2.25084 0.561684C1.86414 0.7043 1.51434 0.931824 1.22746 1.22746C0.931816 1.51459 0.704292 1.86415 0.56144 2.25085C0.439636 2.56446 0.294655 3.03583 0.255157 3.90359C0.212349 4.84206 0.203125 5.12351 0.203125 7.50021C0.203125 9.87668 0.212349 10.1581 0.255157 11.0968C0.294655 11.9646 0.439636 12.4357 0.56144 12.7493C0.704292 13.136 0.93158 13.4856 1.22722 13.7727C1.51434 14.0684 1.86391 14.2959 2.2506 14.4385C2.56422 14.5605 3.03558 14.7055 3.90334 14.745C4.84182 14.7878 5.12303 14.7968 7.49973 14.7968C9.87667 14.7968 10.1581 14.7878 11.0964 14.745C11.9641 14.7055 12.4355 14.5605 12.7491 14.4385C13.5253 14.1391 14.1388 13.5256 14.4383 12.7493C14.5601 12.4357 14.705 11.9646 14.7448 11.0968C14.7876 10.1581 14.7966 9.87668 14.7966 7.50021C14.7966 5.12351 14.7876 4.84206 14.7448 3.90359C14.7053 3.03583 14.5603 2.56446 14.4383 2.25085ZM7.49997 12.0703C4.97569 12.0703 2.92939 10.0243 2.92939 7.49998C2.92939 4.97569 4.97569 2.92963 7.49997 2.92963C10.024 2.92963 12.0703 4.97569 12.0703 7.49998C12.0703 10.0243 10.024 12.0703 7.49997 12.0703ZM12.251 3.81702C11.6611 3.81702 11.1829 3.3388 11.1829 2.74894C11.1829 2.15908 11.6611 1.68085 12.251 1.68085C12.8409 1.68085 13.3191 2.15908 13.3191 2.74894C13.3189 3.3388 12.8409 3.81702 12.251 3.81702Z" fill="#1D84C4"/>
</svg>
