<svg width="38" height="39" viewBox="0 0 38 39" fill="none" xmlns="http://www.w3.org/2000/svg">
<path d="M19 0C8.50819 0 0 8.73209 0 19.5C0 30.2679 8.50819 39 19 39C29.4918 39 38 30.2679 38 19.5C38 8.73209 29.4918 0 19 0ZM19.4027 30.8535C19.4024 30.8535 19.403 30.8535 19.4027 30.8535H19.3981C17.4948 30.8526 15.6245 30.3628 13.9636 29.4333L7.93532 31.0558L9.54871 25.0097C8.55342 23.2405 8.02983 21.2332 8.0307 19.1769C8.03331 12.7439 13.1347 7.51037 19.4027 7.51037C22.4445 7.51156 25.2999 8.72674 27.4467 10.9319C29.5939 13.1373 30.7756 16.0687 30.7744 19.1861C30.7718 25.6193 25.6698 30.8535 19.4027 30.8535Z" fill="white"/>
</svg>
