<svg width="20" height="20" viewBox="0 0 20 20" fill="none" xmlns="http://www.w3.org/2000/svg">
<path d="M10.4066 0.480957C5.19304 0.480957 0.953003 4.83079 0.950684 10.1777C0.950104 12.01 1.44992 13.7944 2.39592 15.3383L2.62061 15.7052L1.66562 19.2838L5.24291 18.3209L5.5882 18.531C7.03924 19.4147 8.70278 19.8822 10.3988 19.8828H10.4026C15.6121 19.8828 19.8521 15.5326 19.8545 10.1854C19.8553 7.5941 18.8731 5.15779 17.0886 3.32491C15.3042 1.49202 12.9309 0.48185 10.4066 0.480957ZM15.9661 14.3469C15.7292 15.0277 14.5942 15.6493 14.0483 15.7332C13.5586 15.8082 12.9393 15.8394 12.2586 15.6177C11.8458 15.4832 11.3167 15.3038 10.6386 15.0036C7.78838 13.7408 5.92682 10.7963 5.78476 10.6017C5.64271 10.4071 4.62452 9.02084 4.62452 7.58577C4.62452 6.151 5.35859 5.44552 5.61893 5.15392C5.87957 4.86203 6.18746 4.78913 6.37678 4.78913C6.56609 4.78913 6.7557 4.79092 6.92124 4.79925C7.09577 4.80817 7.33002 4.73111 7.56051 5.29972C7.79737 5.88351 8.36561 7.31828 8.43664 7.46407C8.50767 7.61017 8.55492 7.78036 8.46041 7.97496C8.36561 8.16956 8.05076 8.58939 7.75011 8.97204C7.624 9.13242 7.45962 9.27524 7.62545 9.56713C7.79099 9.85873 8.36155 10.8136 9.20608 11.5866C10.2915 12.5798 11.2071 12.8875 11.4912 13.0335C11.775 13.1793 11.9409 13.1549 12.1067 12.9606C12.2722 12.7661 12.817 12.1094 13.0063 11.8175C13.1956 11.5256 13.3852 11.5744 13.6456 11.6717C13.9062 11.7687 15.303 12.4742 15.5872 12.62C15.8713 12.7661 16.0606 12.839 16.1316 12.9606C16.2029 13.0823 16.2029 13.6658 15.9661 14.3469Z" fill="white"/>
</svg>
