<svg width="19" height="19" viewBox="0 0 19 19" fill="none" xmlns="http://www.w3.org/2000/svg">
<path d="M18.229 2.89617C18.0496 2.40998 17.7634 1.96991 17.3914 1.60869C17.0302 1.23676 16.5904 0.950516 16.104 0.771095C15.7094 0.617859 15.1167 0.435463 14.025 0.385773C12.844 0.331917 12.49 0.320312 9.50021 0.320312C6.51017 0.320312 6.15609 0.331619 4.97543 0.385475C3.88373 0.435463 3.29072 0.617859 2.89647 0.771095C2.40998 0.950516 1.96991 1.23676 1.60899 1.60869C1.23705 1.96991 0.950813 2.40968 0.771095 2.89617C0.617859 3.29072 0.435463 3.88373 0.385773 4.97543C0.331917 6.15609 0.320312 6.51017 0.320312 9.50021C0.320312 12.49 0.331917 12.844 0.385773 14.025C0.435463 15.1167 0.617859 15.7094 0.771095 16.104C0.950813 16.5904 1.23676 17.0302 1.60869 17.3914C1.96991 17.7634 2.40968 18.0496 2.89617 18.229C3.29072 18.3826 3.88373 18.565 4.97543 18.6147C6.15609 18.6685 6.50987 18.6798 9.49992 18.6798C12.4903 18.6798 12.8443 18.6685 14.0247 18.6147C15.1164 18.565 15.7094 18.3826 16.104 18.229C17.0805 17.8523 17.8523 17.0805 18.229 16.104C18.3823 15.7094 18.5647 15.1167 18.6147 14.025C18.6685 12.844 18.6798 12.49 18.6798 9.50021C18.6798 6.51017 18.6685 6.15609 18.6147 4.97543C18.565 3.88373 18.3826 3.29072 18.229 2.89617ZM9.50021 15.2497C6.3245 15.2497 3.75013 12.6756 3.75013 9.49992C3.75013 6.3242 6.3245 3.75013 9.50021 3.75013C12.6756 3.75013 15.25 6.3242 15.25 9.49992C15.25 12.6756 12.6756 15.2497 9.50021 15.2497ZM15.4773 4.86652C14.7352 4.86652 14.1336 4.26488 14.1336 3.5228C14.1336 2.78072 14.7352 2.17908 15.4773 2.17908C16.2194 2.17908 16.821 2.78072 16.821 3.5228C16.8207 4.26488 16.2194 4.86652 15.4773 4.86652Z" fill="white"/>
</svg>
