<svg width="31" height="31" viewBox="0 0 31 31" fill="none" xmlns="http://www.w3.org/2000/svg">
<path d="M15.5 0C6.9409 0 0 6.9409 0 15.5C0 24.0591 6.9409 31 15.5 31C24.0591 31 31 24.0591 31 15.5C31 6.9409 24.0591 0 15.5 0ZM24.3467 19.1695C24.3037 20.1169 24.153 20.7638 23.933 21.33C23.4707 22.5256 22.5256 23.4707 21.33 23.933C20.764 24.153 20.1169 24.3034 19.1697 24.3467C18.2206 24.39 17.9174 24.4004 15.5002 24.4004C13.0829 24.4004 12.7799 24.39 11.8305 24.3467C10.8833 24.3034 10.2362 24.153 9.67023 23.933C9.07612 23.7095 8.53829 23.3593 8.09365 22.9063C7.64097 22.4619 7.2907 21.9239 7.06719 21.33C6.84724 20.764 6.69658 20.1169 6.65353 19.1697C6.60978 18.2204 6.59961 17.9171 6.59961 15.5C6.59961 13.0829 6.60978 12.7796 6.6533 11.8305C6.69634 10.8831 6.84676 10.2362 7.06672 9.67C7.29022 9.07612 7.64073 8.53806 8.09365 8.09365C8.53806 7.64073 9.07612 7.29046 9.67 7.06696C10.2362 6.847 10.8831 6.69658 11.8305 6.6533C12.7796 6.61002 13.0829 6.59961 15.5 6.59961C17.9171 6.59961 18.2204 6.61002 19.1695 6.65353C20.1169 6.69658 20.7638 6.847 21.33 7.06672C21.9239 7.29022 22.4619 7.64073 22.9066 8.09365C23.3593 8.53829 23.7098 9.07612 23.933 9.67C24.1532 10.2362 24.3037 10.8831 24.3469 11.8305C24.3902 12.7796 24.4004 13.0829 24.4004 15.5C24.4004 17.9171 24.3902 18.2204 24.3467 19.1695Z" fill="#1D84C4"/>
</svg>
