<svg width="39" height="39" viewBox="0 0 39 39" fill="none" xmlns="http://www.w3.org/2000/svg">
<path d="M19.5 0C8.73209 0 0 8.73209 0 19.5C0 30.2679 8.73209 39 19.5 39C30.2679 39 39 30.2679 39 19.5C39 8.73209 30.2679 0 19.5 0ZM30.6297 24.1164C30.5756 25.3084 30.386 26.1222 30.1093 26.8345C29.5276 28.3386 28.3386 29.5276 26.8345 30.1093C26.1225 30.386 25.3084 30.5753 24.1167 30.6297C22.9227 30.6842 22.5412 30.6973 19.5003 30.6973C16.4591 30.6973 16.0779 30.6842 14.8836 30.6297C13.6919 30.5753 12.8778 30.386 12.1658 30.1093C11.4183 29.8281 10.7417 29.3875 10.1823 28.8177C9.61283 28.2586 9.17216 27.5817 8.89098 26.8345C8.61427 26.1225 8.42473 25.3084 8.37057 24.1167C8.31553 22.9224 8.30273 22.5409 8.30273 19.5C8.30273 16.4591 8.31553 16.0776 8.37028 14.8836C8.42443 13.6916 8.61367 12.8778 8.89039 12.1655C9.17157 11.4183 9.61253 10.7414 10.1823 10.1823C10.7414 9.61253 11.4183 9.17187 12.1655 8.89069C12.8778 8.61397 13.6916 8.42473 14.8836 8.37028C16.0776 8.31583 16.4591 8.30273 19.5 8.30273C22.5409 8.30273 22.9224 8.31583 24.1164 8.37057C25.3084 8.42473 26.1222 8.61397 26.8345 8.89039C27.5817 9.17157 28.2586 9.61253 28.818 10.1823C29.3875 10.7417 29.8284 11.4183 30.1093 12.1655C30.3863 12.8778 30.5756 13.6916 30.63 14.8836C30.6845 16.0776 30.6973 16.4591 30.6973 19.5C30.6973 22.5409 30.6845 22.9224 30.6297 24.1164Z" fill="white"/>
</svg>
