<svg width="40" height="36" viewBox="0 0 40 36" fill="none" xmlns="http://www.w3.org/2000/svg">
<path d="M38.2146 0.0282745H10.732C9.7475 0.0282745 8.94656 0.829212 8.94656 1.81367V4.11398C8.645 4.04327 8.33117 4.00468 8.00836 4.00468C5.74172 4.00468 3.89766 5.84874 3.89766 8.11538C3.89766 9.16031 4.29023 10.1149 4.93477 10.8409C2.10742 11.5225 0 14.0716 0 17.1052V22.1544C0 24.1673 1.44539 25.8489 3.35289 26.2158V33.2526C3.35289 34.7519 4.57266 35.9716 6.07203 35.9716C6.82906 35.9716 7.51484 35.6607 8.00836 35.1597C8.50187 35.6606 9.18758 35.9716 9.94469 35.9716C11.444 35.9716 12.6638 34.7519 12.6638 33.2526V20.8123H21.6028C22.0352 20.8123 22.3856 20.4618 22.3856 20.0294C22.3856 19.5971 22.0352 19.2466 21.6028 19.2466H12.6637V16.0984H19.4018C20.9011 16.0984 22.1209 14.8785 22.1209 13.3792C22.1209 13.0656 22.0669 12.7645 21.9688 12.484L27.5564 9.87148C27.948 9.68843 28.1171 9.22249 27.934 8.83085C27.7509 8.43913 27.2849 8.27007 26.8934 8.45327L21.0233 11.1979C20.5702 10.8603 20.0091 10.6601 19.4019 10.6601H11.2331C11.7872 9.9596 12.1191 9.07577 12.1191 8.11531C12.1191 6.79038 11.4884 5.61062 10.5123 4.85835V1.81367C10.5123 1.69241 10.6109 1.59382 10.7322 1.59382H38.2148C38.336 1.59382 38.4346 1.69241 38.4346 1.81367V19.0269C38.4346 19.1481 38.336 19.2467 38.2148 19.2467H28.653C28.2207 19.2467 27.8702 19.5972 27.8702 20.0295C27.8702 20.4619 28.2207 20.8123 28.653 20.8123H38.2148C39.1992 20.8123 40.0002 20.0114 40.0002 19.0269V1.81367C40 0.829212 39.1991 0.0282745 38.2146 0.0282745ZM3.35289 24.6023C2.31734 24.2703 1.56555 23.2987 1.56555 22.1544V21.5051H3.35289V24.6023ZM11.0982 33.2527C11.0982 33.8887 10.5807 34.4062 9.94461 34.4062C9.30859 34.4062 8.79109 33.8887 8.79109 33.2527V26.0948C8.79109 25.6625 8.44063 25.312 8.00828 25.312C7.57594 25.312 7.22547 25.6625 7.22547 26.0948V33.2527C7.22547 33.8887 6.70797 34.4062 6.07188 34.4062C5.43586 34.4062 4.91836 33.8887 4.91836 33.2527V23.6284H11.0981V33.2527H11.0982ZM18.125 12.2258H19.4018C20.0378 12.2258 20.5553 12.7433 20.5553 13.3793C20.5553 14.0154 20.0378 14.5329 19.4018 14.5329H18.125V12.2258ZM16.5594 12.2258V14.5329H11.8811C11.4545 14.5329 11.0982 14.8889 11.0982 15.3159V22.0628H4.91844V16.6069C4.91844 16.1745 4.56797 15.8241 4.13562 15.8241C3.70328 15.8241 3.35281 16.1745 3.35281 16.6069V19.9396H1.56555V17.1054C1.56555 14.415 3.75437 12.2262 6.44469 12.2262H7.25047V17.6875C7.25047 18.119 7.60023 18.4687 8.03172 18.4687C8.4632 18.4687 8.81297 18.119 8.81297 17.6875V12.226L16.5594 12.2258ZM10.5535 8.11538C10.5535 9.51874 9.41172 10.6605 8.00836 10.6605C6.60492 10.6605 5.4632 9.51882 5.4632 8.11538C5.4632 6.71195 6.605 5.57023 8.00836 5.57023C9.41172 5.57023 10.5535 6.71195 10.5535 8.11538Z" fill="black"/>
</svg>
