<svg width="56" height="55" viewBox="0 0 56 55" fill="none" xmlns="http://www.w3.org/2000/svg">
<path d="M54.3047 0.0533447H1.69531C0.765625 0.0533447 0 0.81303 0 1.75988V6.17487C0 7.11071 0.765625 7.88141 1.69531 7.88141H2.67969V17.3279C2.67969 17.7793 3.05156 18.1537 3.5 18.1537C3.94844 18.1537 4.32031 17.7793 4.32031 17.3279V7.88141H51.6797V40.0524C51.6797 40.4488 51.3625 40.7681 50.9688 40.7681C50.5312 40.7681 18.3312 40.7681 17.8172 40.7681C16.5266 40.7681 6.3 40.7681 5.03125 40.7681C4.6375 40.7681 4.32031 40.4488 4.32031 40.0524V21.1814C4.32031 20.73 3.94844 20.3557 3.5 20.3557C3.05156 20.3557 2.67969 20.73 2.67969 21.1814V40.0414C2.67969 41.3516 3.72969 42.4086 5.03125 42.4086H12.4359L10.0625 51.3156C9.64688 52.868 10.5656 54.4754 12.1078 54.8938C13.65 55.3122 15.2469 54.3874 15.6625 52.835L18.4406 42.4196H27.1797V45.8657C25.9 46.229 24.9594 47.4071 24.9594 48.8053C24.9594 50.4898 26.3156 51.8661 28 51.8661C29.6844 51.8661 31.0406 50.4898 31.0406 48.8053C31.0406 47.4071 30.1 46.229 28.8203 45.8657V42.4196H37.5594L40.3375 52.835C40.6766 54.1121 41.825 54.9929 43.1375 54.9929C44.7453 54.9929 46.0359 53.6827 46.0359 52.0753C46.0359 51.5798 45.9922 51.5358 45.2812 48.8494C45.1609 48.409 44.7125 48.1447 44.275 48.2658C43.8375 48.387 43.575 48.8384 43.6953 49.2788C44.4172 51.9872 44.3953 51.8551 44.3953 52.0753C44.3953 52.7799 43.8266 53.3414 43.1375 53.3414C42.5687 53.3414 42.0656 52.9561 41.9234 52.4056L39.2656 42.4086H41.8687L42.7109 45.5574C42.8312 45.9978 43.2797 46.262 43.7172 46.1409C44.1547 46.0198 44.4172 45.5684 44.2969 45.128L43.575 42.4086H50.9688C52.2703 42.4086 53.3203 41.3516 53.3203 40.0414V7.88141H54.3047C55.2344 7.88141 56 7.11071 56 6.17487V1.75988C56 0.81303 55.2344 0.0533447 54.3047 0.0533447ZM29.4 48.7943C29.4 49.565 28.7766 50.2036 28 50.2036C27.2234 50.2036 26.6 49.576 26.6 48.7943C26.6 48.0126 27.2234 47.385 28 47.385C28.7656 47.3961 29.4 48.0236 29.4 48.7943ZM14.0875 52.4056C13.9125 53.0772 13.2234 53.4846 12.5453 53.2974C11.8781 53.1212 11.4734 52.4166 11.6594 51.745L14.1422 42.4086H16.7453L14.0875 52.4056ZM54.3594 6.17487C54.3594 6.2079 54.3375 6.22992 54.3047 6.22992C53.6156 6.22992 2.37344 6.22992 1.69531 6.22992C1.6625 6.22992 1.64062 6.2079 1.64062 6.17487V1.75988C1.64062 1.72685 1.6625 1.70483 1.69531 1.70483H54.3047C54.3375 1.70483 54.3594 1.72685 54.3594 1.75988V6.17487Z" fill="white"/>
</svg>
