<svg width="30" height="31" viewBox="0 0 30 31" fill="none" xmlns="http://www.w3.org/2000/svg">
<path d="M15 0C6.717 0 0 6.9409 0 15.5C0 24.0591 6.717 31 15 31C23.283 31 30 24.0591 30 15.5C30 6.9409 23.283 0 15 0ZM15.3179 24.5246C15.3177 24.5246 15.3181 24.5246 15.3179 24.5246H15.3143C13.8116 24.5238 12.3351 24.1346 11.0239 23.3957L6.26472 24.6854L7.53845 19.8795C6.7527 18.4732 6.33934 16.8777 6.34003 15.2431C6.34209 10.1298 10.3695 5.96978 15.3179 5.96978C17.7193 5.97073 19.9736 6.93664 21.6685 8.68942C23.3636 10.4424 24.2965 12.7726 24.2956 15.2505C24.2935 20.3641 20.2657 24.5246 15.3179 24.5246Z" fill="#1D84C4"/>
</svg>
