<svg width="16" height="16" viewBox="0 0 16 16" fill="none" xmlns="http://www.w3.org/2000/svg">
<path d="M8.32069 0.536133C4.2047 0.536133 0.8573 3.99369 0.855469 8.2438C0.855011 9.70023 1.2496 11.1186 1.99645 12.3458L2.17383 12.6375L1.41989 15.482L4.24407 14.7166L4.51667 14.8836C5.66222 15.5861 6.97555 15.9576 8.31451 15.9581H8.31748C12.4303 15.9581 15.7777 12.5003 15.7795 8.24995C15.7802 6.19017 15.0047 4.25362 13.596 2.79671C12.1872 1.3398 10.3136 0.536842 8.32069 0.536133ZM12.7097 11.5578C12.5227 12.0989 11.6267 12.593 11.1957 12.6597C10.8091 12.7193 10.3202 12.7441 9.78278 12.5679C9.45686 12.461 9.03915 12.3184 8.50379 12.0798C6.25365 11.076 4.784 8.7355 4.67185 8.58083C4.5597 8.42615 3.75586 7.32424 3.75586 6.18355C3.75586 5.04309 4.33539 4.48232 4.54093 4.25054C4.74669 4.01852 4.98977 3.96058 5.13923 3.96058C5.28869 3.96058 5.43837 3.962 5.56907 3.96862C5.70685 3.97572 5.89179 3.91446 6.07375 4.36643C6.26075 4.83047 6.70936 5.97092 6.76543 6.08681C6.82151 6.20294 6.85882 6.33823 6.7842 6.4929C6.70936 6.64758 6.46079 6.9813 6.22344 7.28545C6.12388 7.41293 5.9941 7.52646 6.12502 7.75848C6.25571 7.99026 6.70615 8.74922 7.37289 9.36368C8.22982 10.1532 8.95263 10.3977 9.17693 10.5138C9.40101 10.6297 9.53193 10.6103 9.66285 10.4559C9.79354 10.3012 10.2236 9.77923 10.3731 9.54721C10.5225 9.31519 10.6722 9.35398 10.8778 9.43132C11.0835 9.50842 12.1863 10.0692 12.4106 10.1851C12.6349 10.3012 12.7843 10.3592 12.8404 10.4559C12.8967 10.5526 12.8967 11.0164 12.7097 11.5578Z" fill="#1D84C4"/>
</svg>
