<svg width="19" height="20" viewBox="0 0 19 20" fill="none" xmlns="http://www.w3.org/2000/svg">
<path d="M9.45594 0C4.24236 0 0.00231984 4.34983 5.03858e-07 9.69674C-0.000579294 11.529 0.499238 13.3134 1.44524 14.8574L1.66992 15.2243L0.714936 18.8028L4.29223 17.84L4.63752 18.0501C6.08855 18.9338 7.7521 19.4012 9.44812 19.4018H9.45188C14.6614 19.4018 18.9014 15.0517 18.9038 9.70448C18.9046 7.11314 17.9224 4.67683 16.138 2.84395C14.3535 1.01106 11.9803 0.000892658 9.45594 0ZM15.0154 13.866C14.7785 14.5467 13.6435 15.1683 13.0976 15.2522C12.6079 15.3272 11.9887 15.3585 11.3079 15.1368C10.8951 15.0023 10.366 14.8229 9.68788 14.5226C6.8377 13.2599 4.97614 10.3153 4.83408 10.1207C4.69202 9.92615 3.67383 8.53988 3.67383 7.10481C3.67383 5.67004 4.4079 4.96456 4.66825 4.67297C4.92888 4.38107 5.23678 4.30817 5.42609 4.30817C5.61541 4.30817 5.80501 4.30996 5.97056 4.31829C6.14509 4.32722 6.37934 4.25015 6.60982 4.81876C6.84669 5.40255 7.41493 6.83732 7.48595 6.98312C7.55698 7.12921 7.60424 7.29941 7.50973 7.494C7.41493 7.6886 7.10007 8.10844 6.79943 8.49108C6.67332 8.65146 6.50893 8.79428 6.67477 9.08617C6.84031 9.37777 7.41087 10.3326 8.25539 11.1056C9.34085 12.0988 10.2564 12.4065 10.5405 12.5526C10.8244 12.6984 10.9902 12.674 11.156 12.4797C11.3216 12.2851 11.8663 11.6284 12.0556 11.3365C12.2449 11.0446 12.4346 11.0934 12.6949 11.1907C12.9555 11.2877 14.3524 11.9932 14.6365 12.139C14.9206 12.2851 15.1099 12.358 15.1809 12.4797C15.2523 12.6014 15.2523 13.1849 15.0154 13.866Z" fill="white"/>
</svg>
