<svg width="40" height="40" viewBox="0 0 40 40" fill="none" xmlns="http://www.w3.org/2000/svg">
<path d="M7.8125 27.1094C8.24397 27.1094 8.59375 26.7596 8.59375 26.3281C8.59375 25.8967 8.24397 25.5469 7.8125 25.5469C7.38103 25.5469 7.03125 25.8967 7.03125 26.3281C7.03125 26.7596 7.38103 27.1094 7.8125 27.1094Z" fill="black"/>
<path d="M7.8125 34.1406C8.24397 34.1406 8.59375 33.7908 8.59375 33.3594C8.59375 32.9279 8.24397 32.5781 7.8125 32.5781C7.38103 32.5781 7.03125 32.9279 7.03125 33.3594C7.03125 33.7908 7.38103 34.1406 7.8125 34.1406Z" fill="black"/>
<path d="M39.2188 14.2188C39.6502 14.2188 40 13.8689 40 13.4375V0.78125C40 0.349844 39.6502 0 39.2188 0H33.3594C32.9279 0 32.5781 0.349844 32.5781 0.78125C32.5781 1.21266 32.9279 1.5625 33.3594 1.5625H38.4375V12.6562H21.25V1.5625H26.3281C26.7596 1.5625 27.1094 1.21266 27.1094 0.78125C27.1094 0.349844 26.7596 0 26.3281 0H20.4688C20.0373 0 19.6875 0.349844 19.6875 0.78125V13.4375C19.6875 13.8689 20.0373 14.2188 20.4688 14.2188H29.0625V17.3438H11.689C11.9558 16.8838 12.1094 16.3502 12.1094 15.7812V13.8588C14.2066 13.0594 15.625 11.0391 15.625 8.75C15.625 8.31859 15.2752 7.96875 14.8438 7.96875H12.5C11.924 7.96875 11.3539 8.06031 10.8111 8.23625C10.5065 6.45289 9.65953 4.80469 8.36484 3.51008C8.05977 3.20508 7.56516 3.20508 7.26 3.51008C5.96547 4.80469 5.11852 6.45289 4.81391 8.23625C4.27109 8.06031 3.70102 7.96875 3.125 7.96875H0.78125C0.349766 7.96875 0 8.31859 0 8.75C0 11.0389 1.41813 13.059 3.51562 13.8587V15.7812C3.51562 16.3502 3.66922 16.8838 3.93602 17.3438H0.78125C0.349766 17.3438 0 17.6936 0 18.125V39.2188C0 39.6502 0.349766 40 0.78125 40C1.21273 40 1.5625 39.6502 1.5625 39.2188V37.6562H14.0625V39.2188C14.0625 39.6502 14.4123 40 14.8438 40C15.2752 40 15.625 39.6502 15.625 39.2188V23.5938H38.4375V39.2188C38.4375 39.6502 38.7873 40 39.2188 40C39.6502 40 40 39.6502 40 39.2188V18.125C40 17.6936 39.6502 17.3438 39.2188 17.3438H30.625V14.2188H39.2188ZM13.9841 9.53125C13.691 10.9738 12.6005 12.1558 11.1342 12.533C10.8152 12.6148 10.4861 12.6562 10.1562 12.6562H8.67336C8.89531 11.5769 9.56953 10.6212 10.5416 10.0569C11.1336 9.71297 11.8109 9.53125 12.5 9.53125H13.9841ZM7.8125 5.2343C8.66656 6.30977 9.19391 7.60477 9.33555 8.97773C8.71359 9.42023 8.19758 9.98477 7.81258 10.6273C7.4275 9.98484 6.91156 9.42023 6.28953 8.97773C6.43109 7.60477 6.95844 6.30977 7.8125 5.2343ZM1.64086 9.53125H3.125C3.81414 9.53125 4.49141 9.71297 5.08352 10.057C6.05555 10.6212 6.72969 11.5769 6.95164 12.6562H5.46875C5.13891 12.6562 4.80984 12.6148 4.49156 12.5333C3.02469 12.1558 1.93398 10.9738 1.64086 9.53125ZM5.07812 15.7812V14.2043C5.20805 14.2135 5.33836 14.2188 5.46875 14.2188C5.46875 14.2188 10.4169 14.2136 10.5469 14.2043V15.7812C10.5469 16.6428 9.84594 17.3438 8.98438 17.3438H6.64062C5.77906 17.3438 5.07812 16.6428 5.07812 15.7812ZM14.0625 29.0625H1.5625V23.5938H14.0625V29.0625ZM1.5625 30.625H14.0625V36.0938H1.5625V30.625ZM38.4375 18.9062V22.0312H1.5625V18.9062" fill="black"/>
<path d="M29.8438 1.5625C30.2752 1.5625 30.625 1.21272 30.625 0.78125C30.625 0.349778 30.2752 0 29.8438 0C29.4123 0 29.0625 0.349778 29.0625 0.78125C29.0625 1.21272 29.4123 1.5625 29.8438 1.5625Z" fill="black"/>
</svg>
