<svg width="64" height="63" viewBox="0 0 64 63" fill="none" xmlns="http://www.w3.org/2000/svg">
<path d="M32 0C14.3296 0 0 14.1057 0 31.5C0 48.8943 14.3296 63 32 63C49.6704 63 64 48.8943 64 31.5C64 14.1057 49.6704 0 32 0ZM32.6782 49.8402C32.6777 49.8402 32.6787 49.8402 32.6782 49.8402H32.6704C29.4648 49.8388 26.3149 49.0476 23.5176 47.5461L13.3647 50.1671L16.082 40.4002C14.4058 37.5423 13.5239 34.2998 13.5254 30.978C13.5298 20.5863 22.1216 12.1321 32.6782 12.1321C37.8013 12.1341 42.6104 14.097 46.2261 17.6591C49.8423 21.2217 51.8325 25.9571 51.8306 30.9929C51.8262 41.3851 43.2334 49.8402 32.6782 49.8402Z" fill="white"/>
</svg>
