<svg width="22" height="22" viewBox="0 0 22 22" fill="none" xmlns="http://www.w3.org/2000/svg">
<path d="M11.4492 0.967285C5.68685 0.967285 1.00049 5.54018 0.997925 11.1613C0.997285 13.0875 1.54971 14.9634 2.59529 16.5866L2.84363 16.9723L1.78812 20.7344L5.74196 19.7221L6.1236 19.943C7.72737 20.872 9.56603 21.3634 11.4406 21.3641H11.4447C17.2026 21.3641 21.889 16.7908 21.8915 11.1694C21.8925 8.44521 20.8069 5.88396 18.8346 3.95708C16.8623 2.0302 14.2392 0.968224 11.4492 0.967285ZM17.5939 15.5443C17.3321 16.26 16.0776 16.9135 15.4742 17.0017C14.933 17.0805 14.2485 17.1133 13.4962 16.8803C13.0399 16.7389 12.4551 16.5503 11.7056 16.2347C8.55538 14.9071 6.49787 11.8116 6.34085 11.607C6.18384 11.4025 5.05847 9.94511 5.05847 8.43645C5.05847 6.9281 5.86981 6.18644 6.15756 5.87989C6.44563 5.57303 6.78594 5.49639 6.99518 5.49639C7.20442 5.49639 7.41399 5.49827 7.59696 5.50703C7.78986 5.51641 8.04877 5.43539 8.30351 6.03316C8.56531 6.64689 9.19336 8.15523 9.27187 8.30851C9.35038 8.4621 9.40261 8.64102 9.29814 8.8456C9.19336 9.05017 8.84537 9.49154 8.51308 9.89381C8.37369 10.0624 8.192 10.2126 8.37529 10.5194C8.55826 10.826 9.18888 11.8298 10.1223 12.6424C11.322 13.6866 12.3339 14.01 12.648 14.1636C12.9617 14.3169 13.145 14.2912 13.3283 14.087C13.5112 13.8824 14.1133 13.192 14.3226 12.8852C14.5318 12.5783 14.7414 12.6296 15.0291 12.7319C15.3172 12.8339 16.861 13.5755 17.1751 13.7288C17.4891 13.8824 17.6983 13.959 17.7768 14.087C17.8557 14.2149 17.8557 14.8283 17.5939 15.5443Z" fill="white"/>
</svg>
