<svg width="28" height="32" viewBox="0 0 28 32" fill="none" xmlns="http://www.w3.org/2000/svg">
<path d="M13.9998 32C10.3842 32 6.98512 30.5921 4.42849 28.0354C1.87187 25.4788 0.463867 22.0797 0.463867 18.4641C0.463867 15.971 1.13755 13.5405 2.41218 11.4349C2.55743 11.195 2.84437 11.0811 3.11487 11.1566C3.38499 11.232 3.57187 11.4781 3.57187 11.7586C3.57187 13.1235 4.68724 14.7101 6.12518 14.7101C7.53799 14.7101 8.68749 13.5606 8.68749 12.1478C8.68749 11.6634 8.55568 11.1951 8.30618 10.7936C7.84718 10.068 7.60318 9.21933 7.60318 8.3437C7.60318 5.8882 9.52224 3.8742 11.9726 3.75695C12.9531 3.69783 13.7206 2.88183 13.7206 1.89783C13.7206 1.55476 13.6322 1.22558 13.4649 0.945826C13.3405 0.737826 13.3475 0.476701 13.483 0.275701C13.6184 0.074638 13.8579 -0.0297995 14.0973 0.00745055C15.1915 0.177638 16.1955 0.7347 16.9242 1.57608C17.6617 2.42745 18.0679 3.5162 18.0679 4.64176C18.0679 5.60083 17.7781 6.52608 17.2299 7.31758C17.2276 7.32095 17.2252 7.32426 17.2229 7.32758C16.8752 7.80889 16.6915 8.37501 16.6915 8.96464C16.6915 10.5011 17.9414 11.751 19.4779 11.751C20.9844 11.751 22.2082 10.5756 22.2638 9.07514C22.2729 8.82964 22.425 8.61233 22.6525 8.51951C22.8799 8.42689 23.1406 8.47595 23.3188 8.64514C24.6365 9.89658 25.6735 11.372 26.4008 13.0302C27.1539 14.7471 27.5357 16.5753 27.5357 18.4641C27.5357 21.0928 26.7813 23.6418 25.3541 25.8358C25.1658 26.1251 24.7787 26.2071 24.4894 26.019C24.2001 25.8307 24.1181 25.4436 24.3062 25.1542C25.6012 23.1635 26.2857 20.8502 26.2857 18.4641C26.2857 15.4504 25.2198 12.6235 23.2616 10.3878C22.6892 11.9232 21.2131 13.001 19.4779 13.001C17.2522 13.001 15.4415 11.1903 15.4415 8.96464C15.4415 8.11283 15.7057 7.2957 16.2056 6.6012C16.6062 6.02089 16.818 5.34345 16.818 4.64176C16.818 3.3407 16.0665 2.17051 14.9558 1.58914C14.9657 1.6912 14.9706 1.7942 14.9706 1.89783C14.9706 3.54414 13.6844 4.90895 12.0422 5.00501C12.0399 5.0052 12.0375 5.00533 12.0351 5.00545C10.2508 5.08926 8.85318 6.55564 8.85318 8.3437C8.85318 8.98239 9.03024 9.60001 9.36524 10.1296C9.74049 10.7337 9.93743 11.4301 9.93743 12.1478C9.93743 14.25 8.22724 15.9601 6.12512 15.9601C5.10862 15.9601 4.14087 15.4815 3.40012 14.6125C3.12593 14.2907 2.89849 13.9311 2.7243 13.5509C2.05999 15.088 1.7138 16.7596 1.7138 18.4641C1.71393 25.2386 7.2253 30.75 13.9998 30.75C16.2979 30.75 18.5386 30.1118 20.4797 28.9043C20.7727 28.722 21.1582 28.8118 21.3405 29.1049C21.5228 29.398 21.433 29.7834 21.1399 29.9657C19.0006 31.2966 16.5315 32 13.9998 32Z" fill="#242424"/>
</svg>
